# 3ds Max Wavefront OBJ Exporter v0.99 - (c)2007 guruware
# File Created: 24.03.2025 01:54:21

mtllib Dado_3ds.mtl

#
# object Box001
#

v  -15.0000 -15.0000 15.0000
v  -15.0000 -15.0000 -15.0000
v  15.0000 -15.0000 -15.0000
v  15.0000 -15.0000 15.0000
v  -15.0000 15.0000 15.0000
v  15.0000 15.0000 15.0000
v  15.0000 15.0000 -15.0000
v  -15.0000 15.0000 -15.0000
# 8 vertices

vn 0.0000 -1.0000 -0.0000
vn 0.0000 1.0000 -0.0000
vn 0.0000 0.0000 1.0000
vn 1.0000 0.0000 -0.0000
vn 0.0000 0.0000 -1.0000
vn -1.0000 0.0000 -0.0000
# 6 vertex normals

vt 0.5041 0.6605 0.0000
vt 0.5016 0.3483 0.0000
vt 0.7323 0.3448 0.0000
vt 0.7348 0.6569 0.0000
vt 0.5011 0.6745 0.0000
vt 0.7382 0.6745 0.0000
vt 0.7382 0.9923 0.0000
vt 0.5011 0.9923 0.0000
vt 0.7513 0.3442 0.0000
vt 0.9857 0.3442 0.0000
vt 0.9857 0.6594 0.0000
vt 0.7513 0.6594 0.0000
vt 0.0057 0.3419 0.0000
vt 0.2397 0.3419 0.0000
vt 0.2397 0.6616 0.0000
vt 0.0057 0.6616 0.0000
vt 0.2508 0.3425 0.0000
vt 0.4894 0.3425 0.0000
vt 0.4894 0.6598 0.0000
vt 0.2508 0.6598 0.0000
vt 0.4994 0.0115 0.0000
vt 0.7384 0.0115 0.0000
vt 0.7384 0.3294 0.0000
vt 0.4994 0.3294 0.0000
# 24 texture coords

o Box001
g Box001
usemtl 01___Default
s 2
f 1/1/1 2/2/1 3/3/1 
f 3/3/1 4/4/1 1/1/1 
s 4
f 5/5/2 6/6/2 7/7/2 
f 7/7/2 8/8/2 5/5/2 
s 8
f 1/9/3 4/10/3 6/11/3 
f 6/11/3 5/12/3 1/9/3 
s 16
f 4/13/4 3/14/4 7/15/4 
f 7/15/4 6/16/4 4/13/4 
s 32
f 3/17/5 2/18/5 8/19/5 
f 8/19/5 7/20/5 3/17/5 
s 64
f 2/21/6 1/22/6 5/23/6 
f 5/23/6 8/24/6 2/21/6 
# 12 faces

