# 3ds Max Wavefront OBJ Exporter v0.99 - (c)2007 guruware
# File Created: 02.04.2025 20:35:00

mtllib MoscowLampPost.mtl

#
# object Cylinder
#

v  0.0000 0.0000 9.2031
v  0.0000 12.0499 9.2031
v  -6.5076 12.0499 6.5076
v  -6.5076 0.0000 6.5076
v  -9.2031 12.0499 -0.0000
v  -9.2031 0.0000 -0.0000
v  -6.5076 12.0499 -6.5076
v  -6.5076 -0.0000 -6.5076
v  0.0000 12.0499 -9.2031
v  0.0000 -0.0000 -9.2031
v  0.0000 16.7036 -8.3084
v  -5.8749 16.7036 -5.8749
v  -4.6801 38.7235 -4.6801
v  0.0000 38.7235 -6.6187
v  -8.3084 16.7036 -0.0000
v  0.0000 16.7036 8.3084
v  -5.8749 16.7036 5.8749
v  -8.0450 40.4513 -0.0000
v  -5.6887 40.4513 5.6887
v  -4.1451 42.8097 4.1451
v  -5.8620 42.8097 -0.0000
v  -4.6801 38.7235 4.6801
v  -6.6187 38.7235 -0.0000
v  0.0000 38.7235 6.6187
v  -5.6887 40.4513 -5.6887
v  0.0000 40.4513 8.0450
v  0.0000 42.8097 5.8620
v  0.0000 40.4513 -8.0450
v  -4.1451 42.8097 -4.1451
v  0.0000 42.8097 -5.8620
v  -3.8523 50.1402 3.8523
v  -5.4480 50.1402 -0.0000
v  0.0000 50.1402 5.4480
v  -3.8523 50.1402 -3.8524
v  0.0000 50.1402 -5.4480
v  -3.8979 128.6516 -3.8979
v  0.0000 128.6516 -5.5125
v  -5.5125 128.6516 -0.0000
v  -3.8979 128.6516 3.8979
v  0.0000 128.6516 5.5124
v  0.0000 129.7150 5.9240
v  -4.1889 129.7150 4.1889
v  -4.1889 129.7150 -4.1889
v  0.0000 129.7150 -5.9240
v  -5.9240 129.7150 -0.0000
v  -2.9307 131.3837 2.9307
v  -4.1447 131.3837 -0.0000
v  0.0000 131.3837 4.1447
v  -2.9307 131.3837 -2.9308
v  0.0000 131.3837 -4.1447
v  -4.0890 217.5000 -0.0000
v  -2.8913 217.5000 -2.8914
v  -2.8913 217.5000 2.8913
v  0.0000 217.5000 4.0889
v  0.0000 217.5000 -4.0890
v  0.0000 219.0076 4.6541
v  -3.2910 219.0076 3.2909
v  -3.2910 219.0076 -3.2910
v  0.0000 219.0076 -4.6542
v  -4.6541 219.0076 -0.0000
v  0.0000 229.3522 4.6541
v  -3.2910 229.3522 3.2909
v  -3.2910 229.3522 -3.2910
v  0.0000 229.3522 -4.6542
v  -4.6541 229.3522 -0.0000
v  -1.4094 230.2172 1.4094
v  -6.4581 240.7023 0.7705
v  -7.6888 239.5415 1.0387
v  0.0000 230.2172 1.9932
v  -1.4094 230.2172 -1.4094
v  0.0000 230.2172 -1.9932
v  -1.9932 230.2172 -0.0000
v  -1.9932 234.8338 -0.0000
v  -1.4094 234.8338 -1.4094
v  -1.4094 234.8338 1.4094
v  0.0000 234.8338 1.9932
v  0.0000 234.8338 -1.9932
v  0.0000 236.1718 1.2758
v  -0.9021 236.1718 0.9021
v  -0.9021 236.1718 -0.9022
v  0.0000 236.1718 -1.2758
v  -1.2758 236.1718 -0.0000
v  -11.4632 243.4344 -0.8911
v  -12.0523 242.8361 -0.0000
v  -17.4333 245.0226 -0.0000
v  -16.9979 246.0287 -0.8338
v  -7.6888 239.5415 -1.0388
v  -6.4581 240.7023 -0.7706
v  -8.4317 239.1698 -0.0000
v  -10.6374 245.0058 -0.6648
v  -10.6374 245.0058 0.6647
v  -16.5770 248.4872 -0.6262
v  -11.4632 243.4344 0.8910
v  -16.5770 248.4872 0.6261
v  -16.9979 246.0287 0.8338
v  -20.3647 247.3746 -0.6857
v  -20.0474 248.5192 -0.6255
v  -20.0474 248.5192 0.6254
v  -20.3647 247.3746 0.6856
v  -20.5151 244.7886 -0.0000
v  -20.7850 245.3043 -0.6008
v  -20.7850 245.3043 0.6007
v  -22.4077 244.2133 -0.6008
v  -22.4077 244.2133 0.6007
v  -24.3878 247.8194 -0.6255
v  -24.3878 247.8194 0.6254
v  -23.9465 246.9191 -0.6255
v  -26.6892 245.6451 -0.6255
v  -27.2492 246.1328 -0.6255
v  -23.9465 246.9191 0.6254
v  -27.2492 246.1328 0.6254
v  -28.1615 244.2141 -0.6255
v  -28.1615 244.2141 0.6254
v  -26.6892 245.6451 0.6254
v  -27.4306 244.0832 -0.6255
v  -27.4306 244.0832 0.6254
v  -27.2445 242.7428 0.6254
v  -27.2445 242.7428 -0.6255
v  -26.9933 241.0909 -0.6255
v  -26.4619 241.5885 -0.6255
v  -25.2885 240.7196 -0.6255
v  -25.6487 240.0517 -0.6255
v  -27.9222 242.4392 0.6254
v  -27.9222 242.4392 -0.6255
v  -25.2885 240.7196 0.6254
v  -24.4725 240.7196 0.6254
v  -24.4725 240.7196 -0.6255
v  -26.9933 241.0909 0.6254
v  -25.6487 240.0517 0.6254
v  -26.4619 241.5885 0.6254
v  -24.2371 240.0517 0.6254
v  -22.9026 240.8352 0.6254
v  -23.6890 241.1076 0.6254
v  -24.2371 240.0517 -0.6255
v  -25.6327 237.3457 -0.6874
v  -25.8971 237.3457 -0.0000
v  -22.9026 240.8352 -0.6255
v  -23.6890 241.1076 -0.6255
v  -24.2002 241.5503 -1.1359
v  -21.9206 241.3220 -1.1359
v  -21.9206 241.3220 1.1358
v  -24.2002 241.5503 1.1358
v  -23.1912 242.8219 -0.6008
v  -23.1912 242.8219 0.6007
v  -21.9366 243.8713 -0.0000
v  -23.3750 241.8369 -0.6008
v  -23.3750 241.8369 0.6007
v  -22.6317 242.6614 -0.0000
v  -23.6524 241.4271 -0.8489
v  -23.6524 241.4271 0.8488
v  -22.7962 241.7744 -0.0000
v  -22.3821 241.2899 -0.0000
v  -24.2531 237.3457 0.6873
v  -24.9429 237.3457 0.9508
v  -24.9429 236.7344 2.6354
v  -23.0309 236.7344 1.9052
v  -25.6327 237.3457 0.6873
v  -23.9887 237.3457 -0.0000
v  -24.2531 237.3457 -0.6874
v  -24.9429 237.3457 -0.9508
v  -27.5877 236.7344 -0.0000
v  -26.8549 236.7344 -1.9052
v  -26.3629 236.2149 -1.4150
v  -26.9072 236.2149 -0.0000
v  -22.2981 236.7344 -0.0000
v  -23.0309 236.7344 -1.9052
v  -26.8549 236.7344 1.9052
v  -24.9429 236.7344 -2.6355
v  -24.9429 236.2149 -1.9573
v  -23.5229 236.2149 -1.4150
v  -23.5229 233.8707 -1.4150
v  -24.9429 233.8707 -1.9573
v  -24.9429 236.2149 1.9573
v  -23.5229 236.2149 1.4149
v  -26.3629 236.2149 1.4149
v  -22.9786 236.2149 -0.0000
v  -24.9429 233.8707 1.9573
v  -26.3629 233.8707 1.4149
v  -28.2559 232.5112 3.3012
v  -24.9429 232.5112 4.5666
v  -26.3629 233.8707 -1.4150
v  -26.9072 233.8707 -0.0000
v  -23.5229 233.8707 1.4149
v  -22.9786 233.8707 -0.0000
v  -29.5257 232.5112 -0.0000
v  -31.4599 230.7971 -0.0000
v  -29.6540 230.7971 4.6944
v  -24.9429 232.5112 -4.5666
v  -28.2559 232.5112 -3.3013
v  -21.6300 232.5112 3.3012
v  -20.3601 232.5112 -0.0000
v  -21.6299 232.5112 -3.3013
v  -24.9429 230.7971 -6.4939
v  -20.2317 230.7971 -4.6945
v  -19.3205 228.2555 -5.6025
v  -24.9429 228.2555 -7.7499
v  -18.4259 230.7971 -0.0000
v  -24.9429 230.7971 6.4938
v  -29.6540 230.7971 -4.6945
v  -20.2318 230.7971 4.6944
v  -17.1655 228.2555 -0.0000
v  -19.3206 228.2555 5.6024
v  -17.9174 227.4430 7.0006
v  -15.2244 227.4430 -0.0000
v  -30.5653 228.2555 -5.6025
v  -32.7204 228.2555 -0.0000
v  -24.9429 228.2555 7.7499
v  -30.5653 228.2555 5.6024
v  -17.9173 227.4430 -7.0007
v  -15.2244 226.3359 -0.0000
v  -17.9173 226.3359 -7.0007
v  -24.9429 227.4430 -9.6841
v  -31.9684 227.4430 -7.0007
v  -34.6614 227.4430 -0.0000
v  -24.9429 227.4430 9.6840
v  -31.9684 227.4430 7.0006
v  -31.9684 226.3359 7.0006
v  -24.9429 226.3359 9.6840
v  -24.9429 226.3359 -9.6841
v  -31.9684 226.3359 -7.0007
v  -17.9174 226.3359 7.0006
v  -34.6614 226.3359 -0.0000
v  -24.9429 226.5678 -7.1746
v  -19.7379 226.5678 -5.1866
v  -20.1250 223.9575 -4.8009
v  -24.9429 223.9575 -6.6411
v  -24.9429 223.9575 6.6410
v  -29.7608 223.9575 4.8008
v  -28.6225 221.3874 3.6665
v  -24.9429 221.3874 5.0719
v  -32.1430 226.5678 -0.0000
v  -30.1479 226.5678 -5.1866
v  -29.7608 223.9575 -4.8009
v  -31.6076 223.9575 -0.0000
v  -19.7380 226.5678 5.1865
v  -24.9429 226.5678 7.1745
v  -20.1250 223.9575 4.8008
v  -30.1479 226.5678 5.1865
v  -17.7429 226.5678 -0.0000
v  -18.2783 223.9575 -0.0000
v  -30.0329 221.3874 -0.0000
v  -27.7970 219.8613 -0.0000
v  -27.0062 219.8613 2.0559
v  -24.9429 221.3874 -5.0720
v  -28.6225 221.3874 -3.6666
v  -21.2633 221.3874 3.6665
v  -19.8529 221.3874 -0.0000
v  -21.2633 221.3874 -3.6666
v  -22.0888 219.8613 -0.0000
v  -22.8797 219.8613 2.0559
v  -24.9429 219.4747 -0.0000
v  -22.8797 219.8613 -2.0560
v  -24.9429 219.8613 2.8440
v  -24.9429 219.8613 -2.8440
v  -27.0062 219.8613 -2.0560
v  -6.8952 240.2898 0.4651
v  -7.8234 241.3002 0.4651
v  -7.8234 241.3002 -0.4652
v  -6.8952 240.2898 -0.4652
v  -6.1889 243.3015 0.4651
v  -6.1889 243.3015 -0.4652
v  -4.9472 244.4241 -0.4652
v  -4.9472 244.4241 0.4651
v  -6.8779 244.2785 0.4651
v  -6.8779 244.2785 -0.4652
v  -5.0942 245.6106 -0.4652
v  -1.8549 244.9249 -0.4652
v  -1.7980 243.7307 -0.4652
v  -5.0942 245.6106 0.4651
v  -1.7980 243.7307 0.4651
v  -1.8549 244.9249 0.4651
v  -1.3085 242.7300 -1.3085
v  -1.8505 242.7300 -0.0000
v  -2.1138 247.8606 -0.0000
v  -1.4947 247.8606 -1.4947
v  -1.3085 242.7300 1.3085
v  -1.4947 247.8606 1.4946
v  0.0000 242.7300 1.8505
v  0.0000 247.8606 2.1137
v  0.0000 242.7300 -1.8505
v  0.0000 247.8606 -2.1138
v  0.0000 249.6853 1.2049
v  -0.8521 249.6853 0.8520
v  -0.8521 249.6853 -0.8521
v  0.0000 249.6853 -1.2050
v  -1.2050 249.6853 -0.0000
v  0.0000 250.1284 -0.0000
v  -1.3085 241.6692 1.3085
v  0.0000 242.3298 1.8505
v  -1.3085 241.6692 -1.3085
v  -1.8505 241.9334 -0.0000
v  0.0000 242.3298 -1.8505
v  6.5076 0.0000 6.5076
v  6.5076 12.0499 6.5076
v  9.2031 0.0000 -0.0000
v  9.2031 12.0499 -0.0000
v  6.5076 -0.0000 -6.5076
v  6.5076 12.0499 -6.5076
v  4.6801 38.7235 -4.6801
v  5.8749 16.7036 -5.8749
v  8.3084 16.7036 -0.0000
v  5.8749 16.7036 5.8749
v  8.0450 40.4513 -0.0000
v  5.8620 42.8097 -0.0000
v  4.1451 42.8097 4.1451
v  5.6887 40.4513 5.6887
v  6.6187 38.7235 -0.0000
v  4.6801 38.7235 4.6801
v  5.6887 40.4513 -5.6887
v  4.1451 42.8097 -4.1451
v  5.4480 50.1402 -0.0000
v  3.8523 50.1402 3.8523
v  3.8523 50.1402 -3.8524
v  3.8979 128.6516 -3.8979
v  5.5125 128.6516 -0.0000
v  3.8979 128.6516 3.8979
v  4.1889 129.7150 4.1889
v  4.1889 129.7150 -4.1889
v  5.9240 129.7150 -0.0000
v  4.1447 131.3837 -0.0000
v  2.9307 131.3837 2.9307
v  2.9307 131.3837 -2.9308
v  2.8913 217.5000 -2.8914
v  4.0890 217.5000 -0.0000
v  2.8913 217.5000 2.8913
v  3.2910 219.0076 3.2909
v  3.2910 219.0076 -3.2910
v  4.6541 219.0076 -0.0000
v  3.2910 229.3522 3.2909
v  3.2910 229.3522 -3.2910
v  4.6541 229.3522 -0.0000
v  7.6888 239.5415 1.0387
v  6.4581 240.7023 0.7705
v  1.4094 230.2172 1.4094
v  1.4094 230.2172 -1.4094
v  1.4094 234.8338 -1.4094
v  1.9932 234.8338 -0.0000
v  1.9932 230.2172 -0.0000
v  1.4094 234.8338 1.4094
v  0.9021 236.1718 0.9021
v  0.9021 236.1718 -0.9022
v  1.2758 236.1718 -0.0000
v  11.4632 243.4344 -0.8911
v  16.9979 246.0287 -0.8338
v  17.4333 245.0226 -0.0000
v  12.0523 242.8361 -0.0000
v  6.4581 240.7023 -0.7706
v  7.6888 239.5415 -1.0388
v  8.4317 239.1698 -0.0000
v  10.6374 245.0058 -0.6648
v  10.6374 245.0058 0.6647
v  16.5770 248.4872 -0.6262
v  11.4632 243.4344 0.8910
v  16.9979 246.0287 0.8338
v  16.5770 248.4872 0.6261
v  20.0474 248.5192 -0.6255
v  20.3647 247.3746 -0.6857
v  20.3647 247.3746 0.6856
v  20.0474 248.5192 0.6254
v  20.7850 245.3043 -0.6008
v  20.5151 244.7886 -0.0000
v  20.7850 245.3043 0.6007
v  22.4077 244.2133 0.6007
v  22.4077 244.2133 -0.6008
v  24.3878 247.8194 0.6254
v  24.3878 247.8194 -0.6255
v  27.2492 246.1328 -0.6255
v  26.6892 245.6451 -0.6255
v  23.9465 246.9191 -0.6255
v  23.9465 246.9191 0.6254
v  27.2492 246.1328 0.6254
v  28.1615 244.2141 0.6254
v  28.1615 244.2141 -0.6255
v  26.6892 245.6451 0.6254
v  27.4306 244.0832 -0.6255
v  27.2445 242.7428 -0.6255
v  27.2445 242.7428 0.6254
v  27.4306 244.0832 0.6254
v  26.9933 241.0909 -0.6255
v  25.6487 240.0517 -0.6255
v  25.2885 240.7196 -0.6255
v  26.4619 241.5885 -0.6255
v  27.9222 242.4392 0.6254
v  27.9222 242.4392 -0.6255
v  24.4725 240.7196 -0.6255
v  24.4725 240.7196 0.6254
v  25.2885 240.7196 0.6254
v  26.9933 241.0909 0.6254
v  25.6487 240.0517 0.6254
v  26.4619 241.5885 0.6254
v  23.6890 241.1076 0.6254
v  22.9026 240.8352 0.6254
v  24.2371 240.0517 0.6254
v  24.2371 240.0517 -0.6255
v  25.8971 237.3457 -0.0000
v  25.6327 237.3457 -0.6874
v  22.9026 240.8352 -0.6255
v  21.9206 241.3220 -1.1359
v  24.2002 241.5503 -1.1359
v  23.6890 241.1076 -0.6255
v  21.9206 241.3220 1.1358
v  24.2002 241.5503 1.1358
v  23.1912 242.8219 0.6007
v  23.1912 242.8219 -0.6008
v  21.9366 243.8713 -0.0000
v  23.3750 241.8369 0.6007
v  23.3750 241.8369 -0.6008
v  22.6317 242.6614 -0.0000
v  23.6524 241.4271 0.8488
v  23.6524 241.4271 -0.8489
v  22.7962 241.7744 -0.0000
v  22.3821 241.2899 -0.0000
v  24.2531 237.3457 0.6873
v  23.0309 236.7344 1.9052
v  24.9429 236.7344 2.6354
v  24.9429 237.3457 0.9508
v  25.6327 237.3457 0.6873
v  23.9887 237.3457 -0.0000
v  24.9429 237.3457 -0.9508
v  24.2531 237.3457 -0.6874
v  27.5877 236.7344 -0.0000
v  26.9072 236.2149 -0.0000
v  26.3629 236.2149 -1.4150
v  26.8549 236.7344 -1.9052
v  23.0309 236.7344 -1.9052
v  22.2981 236.7344 -0.0000
v  26.8549 236.7344 1.9052
v  24.9429 236.7344 -2.6355
v  24.9429 236.2149 -1.9573
v  24.9429 233.8707 -1.9573
v  23.5229 233.8707 -1.4150
v  23.5229 236.2149 -1.4150
v  23.5229 236.2149 1.4149
v  24.9429 236.2149 1.9573
v  26.3629 236.2149 1.4149
v  22.9786 236.2149 -0.0000
v  24.9429 233.8707 1.9573
v  24.9429 232.5112 4.5666
v  28.2559 232.5112 3.3012
v  26.3629 233.8707 1.4149
v  26.9072 233.8707 -0.0000
v  26.3629 233.8707 -1.4150
v  23.5229 233.8707 1.4149
v  22.9786 233.8707 -0.0000
v  29.6540 230.7971 4.6944
v  31.4599 230.7971 -0.0000
v  29.5257 232.5112 -0.0000
v  28.2559 232.5112 -3.3013
v  24.9429 232.5112 -4.5666
v  20.3601 232.5112 -0.0000
v  21.6300 232.5112 3.3012
v  21.6299 232.5112 -3.3013
v  24.9429 230.7971 -6.4939
v  24.9429 228.2555 -7.7499
v  19.3205 228.2555 -5.6025
v  20.2317 230.7971 -4.6945
v  18.4259 230.7971 -0.0000
v  24.9429 230.7971 6.4938
v  29.6540 230.7971 -4.6945
v  20.2318 230.7971 4.6944
v  17.1655 228.2555 -0.0000
v  15.2244 227.4430 -0.0000
v  17.9174 227.4430 7.0006
v  19.3206 228.2555 5.6024
v  32.7204 228.2555 -0.0000
v  30.5653 228.2555 -5.6025
v  24.9429 228.2555 7.7499
v  30.5653 228.2555 5.6024
v  17.9173 227.4430 -7.0007
v  17.9173 226.3359 -7.0007
v  15.2244 226.3359 -0.0000
v  24.9429 227.4430 -9.6841
v  34.6614 227.4430 -0.0000
v  31.9684 227.4430 -7.0007
v  24.9429 227.4430 9.6840
v  31.9684 227.4430 7.0006
v  24.9429 226.3359 9.6840
v  31.9684 226.3359 7.0006
v  31.9684 226.3359 -7.0007
v  24.9429 226.3359 -9.6841
v  17.9174 226.3359 7.0006
v  34.6614 226.3359 -0.0000
v  24.9429 226.5678 -7.1746
v  24.9429 223.9575 -6.6411
v  20.1250 223.9575 -4.8009
v  19.7379 226.5678 -5.1866
v  24.9429 223.9575 6.6410
v  24.9429 221.3874 5.0719
v  28.6225 221.3874 3.6665
v  29.7608 223.9575 4.8008
v  32.1430 226.5678 -0.0000
v  31.6076 223.9575 -0.0000
v  29.7608 223.9575 -4.8009
v  30.1479 226.5678 -5.1866
v  19.7380 226.5678 5.1865
v  20.1250 223.9575 4.8008
v  24.9429 226.5678 7.1745
v  30.1479 226.5678 5.1865
v  18.2783 223.9575 -0.0000
v  17.7429 226.5678 -0.0000
v  27.0062 219.8613 2.0559
v  27.7970 219.8613 -0.0000
v  30.0329 221.3874 -0.0000
v  28.6225 221.3874 -3.6666
v  24.9429 221.3874 -5.0720
v  19.8529 221.3874 -0.0000
v  21.2633 221.3874 3.6665
v  21.2633 221.3874 -3.6666
v  22.0888 219.8613 -0.0000
v  24.9429 219.4747 -0.0000
v  22.8797 219.8613 2.0559
v  22.8797 219.8613 -2.0560
v  24.9429 219.8613 2.8440
v  27.0062 219.8613 -2.0560
v  24.9429 219.8613 -2.8440
v  6.8952 240.2898 0.4651
v  6.8952 240.2898 -0.4652
v  7.8234 241.3002 -0.4652
v  7.8234 241.3002 0.4651
v  6.1889 243.3015 0.4651
v  4.9472 244.4241 0.4651
v  4.9472 244.4241 -0.4652
v  6.1889 243.3015 -0.4652
v  6.8779 244.2785 0.4651
v  6.8779 244.2785 -0.4652
v  1.7980 243.7307 -0.4652
v  1.8549 244.9249 -0.4652
v  5.0942 245.6106 -0.4652
v  5.0942 245.6106 0.4651
v  1.7980 243.7307 0.4651
v  1.8549 244.9249 0.4651
v  1.3085 242.7300 -1.3085
v  1.4947 247.8606 -1.4947
v  2.1138 247.8606 -0.0000
v  1.8505 242.7300 -0.0000
v  1.4947 247.8606 1.4946
v  1.3085 242.7300 1.3085
v  0.8521 249.6853 0.8520
v  0.8521 249.6853 -0.8521
v  1.2050 249.6853 -0.0000
v  1.3085 241.6692 1.3085
v  1.3085 241.6692 -1.3085
v  1.8505 241.9334 -0.0000
# 543 vertices

vn 0.0000 0.0000 1.0000
vn 0.0000 0.0927 0.9957
vn -0.7041 0.0927 0.7041
vn -0.7071 0.0000 0.7071
vn -0.9957 0.0927 -0.0000
vn -1.0000 0.0000 -0.0000
vn -0.7041 0.0927 -0.7041
vn -0.7071 -0.0000 -0.7071
vn 0.0000 0.0927 -0.9957
vn 0.0000 -0.0000 -1.0000
vn 0.0000 0.1347 -0.9909
vn -0.7007 0.1347 -0.7007
vn -0.6670 -0.3320 -0.6670
vn -0.0000 -0.3320 -0.9433
vn -0.9909 0.1347 -0.0000
vn 0.0000 0.1347 0.9909
vn -0.7007 0.1347 0.7007
vn -0.9997 0.0247 -0.0000
vn -0.7069 0.0247 0.7069
vn -0.6403 0.4242 0.6403
vn -0.9056 0.4242 -0.0000
vn -0.6670 -0.3320 0.6670
vn -0.9433 -0.3320 0.0000
vn 0.0000 -0.3320 0.9433
vn -0.7069 0.0247 -0.7069
vn 0.0000 0.0247 0.9997
vn -0.0000 0.4242 0.9056
vn -0.0000 0.0247 -0.9997
vn -0.6403 0.4242 -0.6403
vn 0.0000 0.4242 -0.9056
vn -0.7068 0.0280 0.7068
vn -0.9996 0.0280 -0.0000
vn -0.0000 0.0280 0.9996
vn -0.7068 0.0280 -0.7068
vn -0.0000 0.0280 -0.9996
vn -0.6939 -0.1926 -0.6939
vn 0.0000 -0.1926 -0.9813
vn -0.9813 -0.1926 0.0000
vn -0.6939 -0.1926 0.6939
vn -0.0000 -0.1926 0.9813
vn -0.0000 0.1974 0.9803
vn -0.6932 0.1974 0.6932
vn -0.6932 0.1974 -0.6932
vn 0.0000 0.1974 -0.9803
vn -0.9803 0.1974 -0.0000
vn -0.6356 0.4381 0.6356
vn -0.8989 0.4381 -0.0000
vn 0.0000 0.4381 0.8989
vn -0.6356 0.4381 -0.6356
vn 0.0000 0.4381 -0.8989
vn -0.9825 -0.1862 0.0000
vn -0.6947 -0.1862 -0.6947
vn -0.6947 -0.1862 0.6947
vn -0.0000 -0.1862 0.9825
vn -0.0000 -0.1862 -0.9825
vn 0.0000 -0.1712 0.9852
vn -0.6967 -0.1712 0.6967
vn -0.6967 -0.1712 -0.6967
vn -0.0000 -0.1712 -0.9852
vn -0.9852 -0.1712 0.0000
vn 0.0000 0.5279 0.8493
vn -0.5245 0.2337 0.8187
vn -0.5245 0.2337 -0.8187
vn 0.0000 0.5279 -0.8493
vn -0.9850 -0.1725 -0.0000
vn -0.0590 0.5931 0.8029
vn 0.6739 0.4918 0.5514
vn -0.2524 -0.0892 0.9635
vn 0.0000 0.6671 0.7450
vn -0.0590 0.5931 -0.8029
vn 0.0000 0.6671 -0.7450
vn -0.9730 0.2306 -0.0000
vn -0.6880 0.2306 -0.6880
vn -0.6880 0.2306 0.6880
vn 0.0000 0.2306 0.9730
vn 0.0000 0.2306 -0.9730
vn 0.0000 0.8032 0.5958
vn -0.4213 0.8032 0.4213
vn -0.4213 0.8032 -0.4213
vn 0.0000 0.8032 -0.5958
vn -0.5958 0.8032 -0.0000
vn -0.1759 -0.2250 -0.9583
vn -0.5732 -0.8194 -0.0000
vn -0.1235 -0.9923 -0.0000
vn -0.2101 -0.2510 -0.9449
vn -0.2524 -0.0892 -0.9635
vn 0.6739 0.4918 -0.5514
vn -0.8573 -0.5148 -0.0000
vn 0.4693 0.6134 -0.6352
vn 0.4693 0.6134 0.6352
vn 0.2040 0.7538 -0.6247
vn -0.1759 -0.2250 0.9583
vn 0.2040 0.7538 0.6247
vn -0.2101 -0.2510 0.9449
vn -0.0938 -0.6141 -0.7836
vn -0.0588 0.7416 -0.6683
vn -0.0588 0.7416 0.6683
vn -0.0938 -0.6141 0.7836
vn 0.3286 -0.9445 0.0000
vn -0.2061 0.4382 -0.8749
vn -0.2061 0.4382 0.8749
vn -0.3495 0.3307 -0.8766
vn -0.3495 0.3307 0.8766
vn -0.2545 0.7042 -0.6629
vn -0.2545 0.7042 0.6629
vn 0.1820 -0.6385 -0.7478
vn 0.4298 -0.4334 -0.7921
vn -0.5627 0.5148 -0.6468
vn 0.1820 -0.6385 0.7478
vn -0.5627 0.5148 0.6468
vn -0.7523 0.1175 -0.6482
vn -0.7523 0.1175 0.6482
vn 0.4298 -0.4334 0.7921
vn 0.6214 -0.0956 -0.7776
vn 0.6214 -0.0956 0.7776
vn 0.6046 0.2323 0.7619
vn 0.6046 0.2323 -0.7619
vn -0.5365 -0.5079 -0.6740
vn 0.4798 0.4603 -0.7469
vn 0.1942 0.5884 -0.7849
vn -0.5287 -0.1914 -0.8270
vn -0.7021 -0.2713 0.6583
vn -0.7021 -0.2713 -0.6583
vn 0.1942 0.5884 0.7849
vn -0.1475 0.6303 0.7622
vn -0.1475 0.6303 -0.7622
vn -0.5365 -0.5079 0.6740
vn -0.5287 -0.1913 0.8270
vn 0.4798 0.4603 0.7469
vn 0.4912 -0.2118 0.8449
vn 0.2579 -0.8594 0.4415
vn -0.4761 -0.3865 0.7899
vn 0.4913 -0.2118 -0.8449
vn -0.5256 0.6646 -0.5311
vn -0.7589 0.6512 0.0000
vn 0.2579 -0.8594 -0.4415
vn -0.4761 -0.3865 -0.7899
vn -0.6433 0.3006 -0.7041
vn 0.7656 0.0719 -0.6393
vn 0.7656 0.0719 0.6393
vn -0.6433 0.3006 0.7041
vn -0.4249 0.1576 -0.8914
vn -0.4249 0.1576 0.8914
vn 0.7209 -0.6931 0.0000
vn -0.2463 0.4972 -0.8319
vn -0.2463 0.4972 0.8319
vn 0.9373 -0.3485 0.0000
vn -0.3497 0.6469 -0.6776
vn -0.3497 0.6469 0.6776
vn 0.9371 0.3491 0.0000
vn 0.8451 0.5346 -0.0000
vn 0.5257 0.6646 0.5311
vn 0.0000 0.6577 0.7533
vn 0.0000 0.1289 0.9917
vn 0.7011 0.1247 0.7021
vn -0.5256 0.6646 0.5311
vn 0.7589 0.6512 0.0000
vn 0.5256 0.6646 -0.5311
vn -0.0000 0.6577 -0.7532
vn -0.9917 0.1285 0.0000
vn -0.7011 0.1247 -0.7021
vn -0.6106 -0.5021 -0.6125
vn -0.8720 -0.4895 0.0000
vn 0.9917 0.1285 0.0000
vn 0.7011 0.1247 -0.7021
vn -0.7011 0.1247 0.7021
vn -0.0000 0.1289 -0.9917
vn -0.0000 -0.4882 -0.8727
vn 0.6106 -0.5021 -0.6125
vn 0.5679 0.5940 -0.5697
vn -0.0000 0.5789 -0.8154
vn 0.0000 -0.4882 0.8727
vn 0.6106 -0.5021 0.6125
vn -0.6106 -0.5021 0.6125
vn 0.8720 -0.4895 0.0000
vn -0.0000 0.5789 0.8154
vn -0.5679 0.5940 0.5697
vn -0.4095 0.8145 0.4109
vn -0.0000 0.8101 0.5862
vn -0.5679 0.5940 -0.5697
vn -0.8146 0.5800 -0.0000
vn 0.5679 0.5940 0.5697
vn 0.8146 0.5800 0.0000
vn -0.5850 0.8110 0.0000
vn -0.8095 0.5872 0.0000
vn -0.5694 0.5915 0.5709
vn 0.0000 0.8101 -0.5862
vn -0.4095 0.8145 -0.4109
vn 0.4095 0.8145 0.4109
vn 0.5851 0.8110 0.0000
vn 0.4096 0.8145 -0.4109
vn -0.0000 0.5861 -0.8103
vn 0.5694 0.5915 -0.5709
vn 0.4394 0.7828 -0.4406
vn 0.0000 0.7705 -0.6375
vn 0.8095 0.5872 0.0000
vn 0.0000 0.5861 0.8103
vn -0.5694 0.5915 -0.5709
vn 0.5694 0.5915 0.5709
vn 0.6361 0.7716 0.0000
vn 0.4394 0.7828 0.4406
vn 0.6122 0.4987 0.6135
vn 0.8647 0.5023 0.0000
vn -0.4394 0.7828 -0.4406
vn -0.6360 0.7716 -0.0000
vn 0.0000 0.7705 0.6375
vn -0.4394 0.7828 0.4406
vn 0.6122 0.4987 -0.6135
vn 0.7729 -0.6345 0.0000
vn 0.5508 -0.6259 -0.5521
vn 0.0000 0.5021 -0.8648
vn -0.6122 0.4987 -0.6135
vn -0.8647 0.5023 -0.0000
vn 0.0000 0.5021 0.8648
vn -0.6122 0.4987 0.6135
vn -0.5508 -0.6259 0.5521
vn -0.0000 -0.6349 0.7726
vn -0.0000 -0.6349 -0.7726
vn -0.5508 -0.6259 -0.5521
vn 0.5508 -0.6259 0.5521
vn -0.7729 -0.6345 0.0000
vn 0.0000 -0.2002 -0.9797
vn 0.6914 -0.2049 -0.6928
vn 0.6594 -0.3584 -0.6609
vn 0.0000 -0.3534 -0.9355
vn -0.0000 -0.3534 0.9355
vn -0.6594 -0.3584 0.6609
vn -0.5244 -0.6697 0.5258
vn -0.0000 -0.6652 0.7467
vn -0.9796 -0.2009 -0.0000
vn -0.6914 -0.2049 -0.6928
vn -0.6594 -0.3584 -0.6609
vn -0.9351 -0.3543 -0.0000
vn 0.6914 -0.2049 0.6928
vn -0.0000 -0.2002 0.9797
vn 0.6594 -0.3584 0.6609
vn -0.6914 -0.2049 0.6928
vn 0.9796 -0.2009 0.0000
vn 0.9351 -0.3543 0.0000
vn -0.7458 -0.6662 0.0000
vn -0.4035 -0.9150 0.0000
vn -0.2847 -0.9150 0.2858
vn 0.0000 -0.6652 -0.7467
vn -0.5244 -0.6697 -0.5258
vn 0.5244 -0.6697 0.5258
vn 0.7458 -0.6662 0.0000
vn 0.5244 -0.6697 -0.5258
vn 0.4035 -0.9150 0.0000
vn 0.2847 -0.9150 0.2858
vn 0.0000 -1.0000 0.0000
vn 0.2847 -0.9150 -0.2858
vn 0.0000 -0.9146 0.4043
vn -0.0000 -0.9146 -0.4043
vn -0.2847 -0.9150 -0.2858
vn 0.2114 -0.8064 0.5523
vn -0.7739 -0.1713 0.6098
vn -0.7739 -0.1713 -0.6098
vn 0.2114 -0.8064 -0.5523
vn 0.5382 -0.3175 0.7807
vn 0.5382 -0.3175 -0.7807
vn 0.1444 -0.5447 -0.8261
vn 0.1444 -0.5447 0.8261
vn -0.6232 0.4434 0.6443
vn -0.6232 0.4434 -0.6443
vn -0.1676 0.7624 -0.6250
vn 0.6138 0.5222 -0.5920
vn 0.5322 -0.6308 -0.5647
vn -0.1676 0.7624 0.6250
vn 0.5322 -0.6308 0.5647
vn 0.6138 0.5222 0.5920
vn -0.7069 -0.0258 -0.7069
vn -0.9997 -0.0258 0.0000
vn -0.9813 0.1926 -0.0000
vn -0.6939 0.1926 -0.6939
vn -0.7069 -0.0258 0.7069
vn -0.6939 0.1926 0.6939
vn -0.0000 -0.0258 0.9997
vn -0.0000 0.1926 0.9813
vn 0.0000 -0.0258 -0.9997
vn -0.0000 0.1926 -0.9813
vn -0.0000 0.7020 0.7122
vn -0.5036 0.7020 0.5036
vn -0.5036 0.7020 -0.5036
vn -0.0000 0.7020 -0.7122
vn -0.7122 0.7020 -0.0000
vn 0.0000 1.0000 -0.0000
vn -0.3664 -0.7446 0.5580
vn 0.0000 -0.5054 0.8629
vn -0.3664 -0.7446 -0.5580
vn -0.9006 -0.4347 0.0000
vn 0.0000 -0.5054 -0.8629
vn 0.7071 0.0000 0.7071
vn 0.7041 0.0927 0.7041
vn 1.0000 0.0000 -0.0000
vn 0.9957 0.0927 -0.0000
vn 0.7071 -0.0000 -0.7071
vn 0.7041 0.0927 -0.7041
vn 0.6670 -0.3320 -0.6670
vn 0.7007 0.1347 -0.7007
vn 0.9909 0.1347 -0.0000
vn 0.7007 0.1347 0.7007
vn 0.9997 0.0247 -0.0000
vn 0.9056 0.4242 -0.0000
vn 0.6403 0.4242 0.6403
vn 0.7069 0.0247 0.7069
vn 0.9433 -0.3320 0.0000
vn 0.6670 -0.3320 0.6670
vn 0.7069 0.0247 -0.7069
vn 0.6403 0.4242 -0.6403
vn 0.9996 0.0280 -0.0000
vn 0.7068 0.0280 0.7068
vn 0.7068 0.0280 -0.7068
vn 0.6939 -0.1926 -0.6939
vn 0.9813 -0.1926 -0.0000
vn 0.6939 -0.1926 0.6939
vn 0.6932 0.1974 0.6932
vn 0.6932 0.1974 -0.6932
vn 0.9803 0.1974 -0.0000
vn 0.8989 0.4381 -0.0000
vn 0.6356 0.4381 0.6356
vn 0.6356 0.4381 -0.6356
vn 0.6947 -0.1862 -0.6947
vn 0.9825 -0.1862 -0.0000
vn 0.6947 -0.1862 0.6947
vn 0.6967 -0.1712 0.6967
vn 0.6967 -0.1712 -0.6967
vn 0.9852 -0.1712 -0.0000
vn 0.5245 0.2337 0.8187
vn 0.5245 0.2337 -0.8187
vn 0.9850 -0.1725 -0.0000
vn 0.2524 -0.0892 0.9635
vn -0.6739 0.4918 0.5514
vn 0.0590 0.5931 0.8029
vn 0.0590 0.5931 -0.8029
vn 0.6880 0.2306 -0.6880
vn 0.9730 0.2306 0.0000
vn 0.6880 0.2306 0.6880
vn 0.4213 0.8032 0.4213
vn 0.4213 0.8032 -0.4213
vn 0.5958 0.8032 0.0000
vn 0.1759 -0.2250 -0.9583
vn 0.2101 -0.2510 -0.9449
vn 0.1235 -0.9923 0.0000
vn 0.5732 -0.8194 0.0000
vn -0.6739 0.4918 -0.5514
vn 0.2524 -0.0892 -0.9635
vn 0.8573 -0.5148 0.0000
vn -0.4693 0.6134 -0.6352
vn -0.4693 0.6134 0.6352
vn -0.2040 0.7538 -0.6247
vn 0.1759 -0.2250 0.9583
vn 0.2101 -0.2510 0.9449
vn -0.2040 0.7538 0.6247
vn 0.0588 0.7416 -0.6683
vn 0.0938 -0.6141 -0.7836
vn 0.0938 -0.6141 0.7836
vn 0.0588 0.7416 0.6683
vn 0.2061 0.4382 -0.8749
vn -0.3286 -0.9445 0.0000
vn 0.2061 0.4382 0.8749
vn 0.3495 0.3307 0.8766
vn 0.3495 0.3307 -0.8766
vn 0.2545 0.7042 0.6629
vn 0.2545 0.7042 -0.6629
vn 0.5627 0.5148 -0.6468
vn -0.4298 -0.4334 -0.7921
vn -0.1820 -0.6385 -0.7478
vn -0.1820 -0.6385 0.7478
vn 0.5627 0.5148 0.6468
vn 0.7523 0.1175 0.6482
vn 0.7523 0.1175 -0.6482
vn -0.4298 -0.4334 0.7921
vn -0.6214 -0.0956 -0.7776
vn -0.6046 0.2323 -0.7619
vn -0.6046 0.2323 0.7619
vn -0.6214 -0.0956 0.7776
vn 0.5365 -0.5079 -0.6740
vn 0.5287 -0.1914 -0.8270
vn -0.1942 0.5884 -0.7849
vn -0.4798 0.4603 -0.7469
vn 0.7021 -0.2713 0.6583
vn 0.7021 -0.2713 -0.6583
vn 0.1475 0.6303 -0.7622
vn 0.1475 0.6303 0.7622
vn -0.1942 0.5884 0.7849
vn 0.5365 -0.5079 0.6740
vn 0.5287 -0.1913 0.8270
vn -0.4798 0.4603 0.7469
vn 0.4761 -0.3865 0.7899
vn -0.2579 -0.8594 0.4415
vn -0.4912 -0.2118 0.8449
vn -0.4912 -0.2118 -0.8449
vn -0.2579 -0.8594 -0.4415
vn -0.7656 0.0719 -0.6394
vn 0.6433 0.3006 -0.7041
vn 0.4761 -0.3865 -0.7899
vn -0.7655 0.0719 0.6394
vn 0.6433 0.3006 0.7041
vn 0.4249 0.1576 0.8914
vn 0.4249 0.1576 -0.8914
vn -0.7209 -0.6931 -0.0000
vn 0.2463 0.4972 0.8319
vn 0.2463 0.4972 -0.8319
vn -0.9373 -0.3485 0.0000
vn 0.3497 0.6469 0.6776
vn 0.3497 0.6469 -0.6776
vn -0.9371 0.3491 -0.0000
vn -0.8451 0.5346 -0.0000
vn -0.5257 0.6646 0.5311
vn -0.0000 0.1289 0.9917
vn -0.0000 0.6577 0.7533
vn 0.5256 0.6646 0.5311
vn 0.0000 0.6577 -0.7532
vn 0.0000 0.1289 -0.9917
vn 0.0000 -0.4882 -0.8727
vn 0.0000 0.5789 -0.8154
vn -0.0000 -0.4882 0.8727
vn 0.0000 0.5789 0.8154
vn 0.0000 0.8101 0.5862
vn 0.8146 0.5800 -0.0000
vn -0.8146 0.5800 0.0000
vn 0.8095 0.5872 -0.0000
vn 0.5850 0.8110 0.0000
vn 0.4095 0.8145 -0.4109
vn -0.0000 0.8101 -0.5862
vn -0.5851 0.8110 0.0000
vn -0.4096 0.8145 -0.4109
vn 0.0000 0.5861 -0.8103
vn -0.0000 0.7705 -0.6375
vn -0.0000 0.5861 0.8103
vn -0.6361 0.7716 0.0000
vn -0.8647 0.5023 0.0000
vn 0.6360 0.7716 -0.0000
vn -0.0000 0.7705 0.6375
vn -0.0000 0.5021 -0.8648
vn 0.8647 0.5023 -0.0000
vn -0.0000 0.5021 0.8648
vn 0.0000 -0.6349 0.7726
vn 0.0000 -0.6349 -0.7726
vn -0.0000 -0.2002 -0.9797
vn 0.0000 -0.3534 0.9355
vn 0.0000 -0.6652 0.7467
vn 0.9796 -0.2009 -0.0000
vn 0.9351 -0.3543 -0.0000
vn 0.0000 -0.2002 0.9797
vn -0.9351 -0.3543 0.0000
vn -0.9796 -0.2009 0.0000
vn -0.0000 -0.6652 -0.7467
vn -0.0000 -1.0000 0.0000
vn -0.0000 -0.9146 0.4043
vn 0.0000 -0.9146 -0.4043
vn -0.2114 -0.8064 0.5523
vn -0.2114 -0.8064 -0.5523
vn 0.7739 -0.1713 -0.6098
vn 0.7739 -0.1713 0.6098
vn -0.5382 -0.3175 0.7807
vn -0.1444 -0.5447 0.8261
vn -0.1444 -0.5447 -0.8261
vn -0.5382 -0.3175 -0.7807
vn 0.6232 0.4434 0.6443
vn 0.6232 0.4434 -0.6443
vn -0.5322 -0.6308 -0.5647
vn -0.6138 0.5222 -0.5920
vn 0.1676 0.7624 -0.6250
vn 0.1676 0.7624 0.6250
vn -0.5322 -0.6308 0.5647
vn -0.6138 0.5222 0.5920
vn 0.7069 -0.0258 -0.7069
vn 0.6939 0.1926 -0.6939
vn 0.9813 0.1926 0.0000
vn 0.9997 -0.0258 0.0000
vn 0.6939 0.1926 0.6939
vn 0.7069 -0.0258 0.7069
vn 0.5036 0.7020 0.5036
vn 0.5036 0.7020 -0.5036
vn 0.7122 0.7020 -0.0000
vn 0.3664 -0.7446 0.5580
vn 0.3664 -0.7446 -0.5580
vn 0.9006 -0.4347 0.0000
# 479 vertex normals

vt 0.6251 0.0174 0.0000
vt 0.6215 0.0527 0.0000
vt 0.5594 0.0524 0.0000
vt 0.5630 0.0171 0.0000
vt 0.5336 0.0523 0.0000
vt 0.5373 0.0170 0.0000
vt 0.6127 0.0690 0.0000
vt 0.5589 0.0690 0.0000
vt 0.5492 0.1519 0.0000
vt 0.5874 0.1518 0.0000
vt 0.5366 0.0689 0.0000
vt 0.4536 0.1578 0.0000
vt 0.4845 0.1572 0.0000
vt 0.5077 0.1638 0.0000
vt 0.4852 0.1643 0.0000
vt 0.5333 0.1520 0.0000
vt 0.4956 0.1517 0.0000
vt 0.4702 0.1522 0.0000
vt 0.5569 0.1504 0.0000
vt 0.5591 0.1556 0.0000
vt 0.5620 0.1626 0.0000
vt 0.5202 0.1655 0.0000
vt 0.5406 0.1654 0.0000
vt 0.5408 0.1927 0.0000
vt 0.5207 0.1928 0.0000
vt 0.5899 0.1652 0.0000
vt 0.5893 0.1925 0.0000
vt 0.5144 0.5217 0.0000
vt 0.5490 0.5217 0.0000
vt 0.5001 0.5217 0.0000
vt 0.5488 0.5226 0.0000
vt 0.5543 0.5302 0.0000
vt 0.5580 0.5334 0.0000
vt 0.4989 0.5342 0.0000
vt 0.4780 0.5340 0.0000
vt 0.4749 0.7264 0.0000
vt 0.4869 0.7264 0.0000
vt 0.5495 0.5345 0.0000
vt 0.5160 0.7264 0.0000
vt 0.4822 0.8765 0.0000
vt 0.4951 0.8765 0.0000
vt 0.4953 0.8873 0.0000
vt 0.4822 0.8873 0.0000
vt 0.4768 0.8765 0.0000
vt 0.4768 0.8873 0.0000
vt 0.4750 0.8880 0.0000
vt 0.5156 0.8880 0.0000
vt 0.5150 0.9060 0.0000
vt 0.4745 0.9060 0.0000
vt 0.4582 0.8880 0.0000
vt 0.4577 0.9060 0.0000
vt 0.4292 0.9297 0.0000
vt 0.4451 0.9310 0.0000
vt 0.3768 0.9554 0.0000
vt 0.3668 0.9533 0.0000
vt 0.4616 0.9039 0.0000
vt 0.4938 0.9042 0.0000
vt 0.4907 0.9169 0.0000
vt 0.4705 0.9169 0.0000
vt 0.4643 0.9169 0.0000
vt 0.4670 0.9324 0.0000
vt 0.4740 0.9324 0.0000
vt 0.4910 0.9324 0.0000
vt 0.4910 0.9361 0.0000
vt 0.4797 0.9361 0.0000
vt 0.4749 0.9361 0.0000
vt 0.2979 0.9659 0.0000
vt 0.2940 0.9650 0.0000
vt 0.2724 0.9661 0.0000
vt 0.2770 0.9679 0.0000
vt 0.4182 0.9300 0.0000
vt 0.3608 0.9526 0.0000
vt 0.3034 0.9683 0.0000
vt 0.2668 0.9720 0.0000
vt 0.2485 0.9706 0.0000
vt 0.2511 0.9727 0.0000
vt 0.2610 0.9699 0.0000
vt 0.2641 0.9707 0.0000
vt 0.4210 0.9355 0.0000
vt 0.4153 0.9397 0.0000
vt 0.4313 0.9317 0.0000
vt 0.4180 0.9365 0.0000
vt 0.4177 0.9366 0.0000
vt 0.4049 0.9412 0.0000
vt 0.4300 0.9322 0.0000
vt 0.3936 0.9453 0.0000
vt 0.3940 0.9451 0.0000
vt 0.3843 0.9486 0.0000
vt 0.3743 0.9522 0.0000
vt 0.3753 0.9518 0.0000
vt 0.3702 0.9536 0.0000
vt 0.3691 0.9540 0.0000
vt 0.3834 0.9489 0.0000
vt 0.3946 0.9476 0.0000
vt 0.3922 0.9451 0.0000
vt 0.3900 0.9450 0.0000
vt 0.3964 0.9422 0.0000
vt 0.4000 0.9435 0.0000
vt 0.3928 0.9478 0.0000
vt 0.4829 0.8727 0.0000
vt 0.4826 0.8648 0.0000
vt 0.4815 0.8648 0.0000
vt 0.4044 0.9443 0.0000
vt 0.3985 0.9402 0.0000
vt 0.4086 0.9414 0.0000
vt 0.4183 0.9353 0.0000
vt 0.4145 0.9395 0.0000
vt 0.4030 0.9426 0.0000
vt 0.4079 0.9412 0.0000
vt 0.4025 0.9433 0.0000
vt 0.4016 0.9416 0.0000
vt 0.3991 0.9411 0.0000
vt 0.5652 0.1669 0.0000
vt 0.5607 0.1669 0.0000
vt 0.5618 0.1559 0.0000
vt 0.5745 0.1559 0.0000
vt 0.4855 0.8648 0.0000
vt 0.4887 0.8727 0.0000
vt 0.4883 0.8648 0.0000
vt 0.4894 0.8648 0.0000
vt 0.5442 0.1559 0.0000
vt 0.5491 0.1559 0.0000
vt 0.5533 0.1466 0.0000
vt 0.5497 0.1466 0.0000
vt 0.5670 0.1668 0.0000
vt 0.5794 0.1558 0.0000
vt 0.5561 0.1669 0.0000
vt 0.5543 0.1669 0.0000
vt 0.8019 0.9417 0.0000
vt 0.8038 0.9417 0.0000
vt 0.8043 0.9394 0.0000
vt 0.8023 0.9394 0.0000
vt 0.5628 0.1466 0.0000
vt 0.5722 0.1465 0.0000
vt 0.5758 0.1465 0.0000
vt 0.8004 0.9394 0.0000
vt 0.7980 0.9380 0.0000
vt 0.8026 0.9381 0.0000
vt 0.7991 0.9417 0.0000
vt 0.7999 0.9417 0.0000
vt 0.7996 0.9394 0.0000
vt 0.8046 0.9418 0.0000
vt 0.8051 0.9395 0.0000
vt 0.7963 0.9380 0.0000
vt 0.7939 0.9363 0.0000
vt 0.7964 0.9363 0.0000
vt 0.8072 0.9381 0.0000
vt 0.8090 0.9382 0.0000
vt 0.8030 0.9364 0.0000
vt 0.8095 0.9365 0.0000
vt 0.8113 0.9340 0.0000
vt 0.8035 0.9339 0.0000
vt 0.8120 0.9365 0.0000
vt 0.8143 0.9340 0.0000
vt 0.8134 0.9332 0.0000
vt 0.8172 0.9333 0.0000
vt 0.7957 0.9338 0.0000
vt 0.7927 0.9338 0.0000
vt 0.8174 0.9322 0.0000
vt 0.8136 0.9321 0.0000
vt 0.8037 0.9331 0.0000
vt 0.7939 0.9330 0.0000
vt 0.7902 0.9329 0.0000
vt 0.7941 0.9319 0.0000
vt 0.8039 0.9320 0.0000
vt 0.7904 0.9318 0.0000
vt 0.2910 0.9445 0.0000
vt 0.4435 0.9278 0.0000
vt 0.4386 0.9273 0.0000
vt 0.4275 0.9317 0.0000
vt 0.4224 0.9355 0.0000
vt 0.4223 0.9313 0.0000
vt 0.4141 0.9359 0.0000
vt 0.4029 0.9424 0.0000
vt 0.4117 0.9418 0.0000
vt 0.4692 0.9214 0.0000
vt 0.4643 0.9214 0.0000
vt 0.4630 0.9321 0.0000
vt 0.4686 0.9321 0.0000
vt 0.4811 0.9213 0.0000
vt 0.4821 0.9320 0.0000
vt 0.4825 0.9358 0.0000
vt 0.4748 0.9358 0.0000
vt 0.4716 0.9359 0.0000
vt 0.4826 0.9367 0.0000
vt 0.4690 0.9192 0.0000
vt 0.4810 0.9205 0.0000
vt 0.4642 0.9197 0.0000
# 188 texture coords

o Cylinder
g Cylinder
usemtl Material_001
s off
f 1/1/1 2/2/2 3/3/3 
f 3/3/3 4/4/4 1/1/1 
f 4/4/4 3/3/3 5/5/5 
f 5/5/5 6/6/6 4/4/4 
f 6/6/6 5/5/5 7/3/7 
f 7/3/7 8/4/8 6/6/6 
f 8/4/8 7/3/7 9/2/9 
f 9/2/9 10/1/10 8/4/8 
f 11/7/11 12/8/12 13/9/13 
f 13/9/13 14/10/14 11/7/11 
f 7/3/7 5/5/5 15/11/15 
f 15/11/15 12/8/12 7/3/7 
f 3/3/3 2/2/2 16/7/16 
f 16/7/16 17/8/17 3/3/3 
f 9/2/9 7/3/7 12/8/12 
f 12/8/12 11/7/11 9/2/9 
f 5/5/5 3/3/3 17/8/17 
f 17/8/17 15/11/15 5/5/5 
f 18/12/18 19/13/19 20/14/20 
f 20/14/20 21/15/21 18/12/18 
f 15/11/15 17/8/17 22/9/22 
f 22/9/22 23/16/23 15/11/15 
f 12/8/12 15/11/15 23/16/23 
f 23/16/23 13/9/13 12/8/12 
f 17/8/17 16/7/16 24/10/24 
f 24/10/24 22/9/22 17/8/17 
f 13/17/13 23/18/23 18/12/18 
f 18/12/18 25/13/25 13/17/13 
f 22/17/22 24/19/24 26/20/26 
f 26/20/26 19/13/19 22/17/22 
f 19/13/19 26/20/26 27/21/27 
f 27/21/27 20/14/20 19/13/19 
f 14/19/14 13/17/13 25/13/25 
f 25/13/25 28/20/28 14/19/14 
f 25/13/25 18/12/18 21/15/21 
f 21/15/21 29/14/29 25/13/25 
f 28/20/28 25/13/25 29/14/29 
f 29/14/29 30/21/30 28/20/28 
f 23/18/23 22/17/22 19/13/19 
f 19/13/19 18/12/18 23/18/23 
f 21/22/21 20/23/20 31/24/31 
f 31/24/31 32/25/32 21/22/21 
f 20/23/20 27/26/27 33/27/33 
f 33/27/33 31/24/31 20/23/20 
f 30/26/30 29/23/29 34/24/34 
f 34/24/34 35/27/35 30/26/30 
f 29/23/29 21/22/21 32/25/32 
f 32/25/32 34/24/34 29/23/29 
f 35/27/35 34/24/34 36/28/36 
f 36/28/36 37/29/37 35/27/35 
f 34/24/34 32/25/32 38/30/38 
f 38/30/38 36/28/36 34/24/34 
f 32/25/32 31/24/31 39/28/39 
f 39/28/39 38/30/38 32/25/32 
f 31/24/31 33/27/33 40/29/40 
f 40/29/40 39/28/39 31/24/31 
f 39/31/39 40/31/40 41/32/41 
f 41/32/41 42/32/42 39/31/39 
f 37/31/37 36/31/36 43/32/43 
f 43/32/43 44/32/44 37/31/37 
f 36/31/36 38/31/38 45/32/45 
f 45/32/45 43/32/43 36/31/36 
f 38/31/38 39/31/39 42/32/42 
f 42/32/42 45/32/45 38/31/38 
f 45/32/45 42/32/42 46/33/46 
f 46/33/46 47/33/47 45/32/45 
f 42/32/42 41/32/41 48/33/48 
f 48/33/48 46/33/46 42/32/42 
f 44/32/44 43/32/43 49/33/49 
f 49/33/49 50/33/50 44/32/44 
f 43/32/43 45/32/45 47/33/47 
f 47/33/47 49/33/49 43/32/43 
f 49/34/49 47/35/47 51/36/51 
f 51/36/51 52/37/52 49/34/49 
f 47/35/47 46/34/46 53/37/53 
f 53/37/53 51/36/51 47/35/47 
f 46/34/46 48/38/48 54/39/54 
f 54/39/54 53/37/53 46/34/46 
f 50/38/50 49/34/49 52/37/52 
f 52/37/52 55/39/55 50/38/50 
f 53/40/53 54/41/54 56/42/56 
f 56/42/56 57/43/57 53/40/53 
f 55/41/55 52/40/52 58/43/58 
f 58/43/58 59/42/59 55/41/55 
f 52/40/52 51/44/51 60/45/60 
f 60/45/60 58/43/58 52/40/52 
f 51/44/51 53/40/53 57/43/57 
f 57/43/57 60/45/60 51/44/51 
f 57/46/57 56/47/56 61/48/61 
f 61/48/61 62/49/62 57/46/57 
f 59/47/59 58/46/58 63/49/63 
f 63/49/63 64/48/64 59/47/59 
f 58/46/58 60/50/60 65/51/65 
f 65/51/65 63/49/63 58/46/58 
f 60/50/60 57/46/57 62/49/62 
f 62/49/62 65/51/65 60/50/60 
f 62/52/62 66/53/66 67/54/67 
f 67/54/67 68/55/68 62/52/62 
f 62/56/62 61/57/61 69/58/69 
f 69/58/69 66/59/66 62/56/62 
f 64/57/64 63/56/63 70/59/70 
f 70/59/70 71/58/71 64/57/64 
f 70/59/70 72/60/6 73/61/72 
f 73/61/72 74/62/73 70/59/70 
f 72/60/6 66/59/66 75/62/74 
f 75/62/74 73/61/72 72/60/6 
f 66/59/66 69/58/69 76/63/75 
f 76/63/75 75/62/74 66/59/66 
f 71/58/71 70/59/70 74/62/73 
f 74/62/73 77/63/76 71/58/71 
f 75/62/74 76/63/75 78/64/77 
f 78/64/77 79/65/78 75/62/74 
f 77/63/76 74/62/73 80/65/79 
f 80/65/79 81/64/80 77/63/76 
f 74/62/73 73/61/72 82/66/81 
f 82/66/81 80/65/79 74/62/73 
f 73/61/72 75/62/74 79/65/78 
f 79/65/78 82/66/81 73/61/72 
f 83/67/82 84/68/83 85/69/84 
f 85/69/84 86/70/85 83/67/82 
f 70/53/70 63/52/63 87/55/86 
f 87/55/86 88/54/87 70/53/70 
f 63/52/63 65/71/65 89/72/88 
f 89/72/88 87/55/86 63/52/63 
f 65/71/65 62/52/62 68/55/68 
f 68/55/68 89/72/88 65/71/65 
f 66/53/66 70/53/70 88/54/87 
f 88/54/87 67/54/67 66/53/66 
f 90/73/89 91/73/90 67/54/67 
f 67/54/67 88/54/87 90/73/89 
f 90/73/89 83/67/82 86/70/85 
f 86/70/85 92/74/91 90/73/89 
f 93/67/92 91/73/90 94/74/93 
f 94/74/93 95/70/94 93/67/92 
f 84/68/83 93/67/92 95/70/94 
f 95/70/94 85/69/84 84/68/83 
f 92/74/91 86/70/85 96/75/95 
f 96/75/95 97/76/96 92/74/91 
f 95/70/94 94/74/93 98/76/97 
f 98/76/97 99/75/98 95/70/94 
f 94/74/93 92/74/91 97/76/96 
f 97/76/96 98/76/97 94/74/93 
f 86/70/85 85/69/84 100/77/99 
f 100/77/99 101/78/100 86/70/85 
f 85/69/84 95/70/94 102/78/101 
f 102/78/101 100/77/99 85/69/84 
f 89/72/88 68/55/68 93/67/92 
f 93/67/92 84/68/83 89/72/88 
f 68/55/68 67/54/67 91/73/90 
f 91/73/90 93/67/92 68/55/68 
f 88/54/87 87/55/86 83/67/82 
f 83/67/82 90/73/89 88/54/87 
f 92/74/91 94/74/93 91/73/90 
f 91/73/90 90/73/89 92/74/91 
f 87/55/86 89/72/88 84/68/83 
f 84/68/83 83/67/82 87/55/86 
f 86/70/85 95/70/94 99/75/98 
f 99/75/98 96/75/95 86/70/85 
f 101/78/100 102/78/101 95/70/94 
f 95/70/94 86/70/85 101/78/100 
f 102/79/101 101/79/100 103/80/102 
f 103/80/102 104/80/103 102/79/101 
f 98/81/97 97/81/96 105/82/104 
f 105/82/104 106/82/105 98/81/97 
f 105/82/104 107/83/106 108/84/107 
f 108/84/107 109/84/108 105/82/104 
f 99/85/98 98/81/97 106/82/105 
f 106/82/105 110/83/109 99/85/98 
f 96/85/95 99/85/98 110/83/109 
f 110/83/109 107/83/106 96/85/95 
f 97/81/96 96/85/95 107/83/106 
f 107/83/106 105/82/104 97/81/96 
f 111/84/110 109/84/108 112/86/111 
f 112/86/111 113/86/112 111/84/110 
f 106/82/105 105/82/104 109/84/108 
f 109/84/108 111/84/110 106/82/105 
f 107/83/106 110/83/109 114/84/113 
f 114/84/113 108/84/107 107/83/106 
f 110/83/109 106/82/105 111/84/110 
f 111/84/110 114/84/113 110/83/109 
f 115/87/114 116/87/115 117/88/116 
f 117/88/116 118/88/117 115/87/114 
f 108/84/107 114/84/113 116/87/115 
f 116/87/115 115/87/114 108/84/107 
f 114/84/113 111/84/110 113/86/112 
f 113/86/112 116/87/115 114/84/113 
f 109/84/108 108/84/107 115/87/114 
f 115/87/114 112/86/111 109/84/108 
f 119/89/118 120/90/119 121/91/120 
f 121/91/120 122/92/121 119/89/118 
f 116/87/115 113/86/112 123/93/122 
f 123/93/122 117/88/116 116/87/115 
f 112/86/111 115/87/114 118/88/117 
f 118/88/117 124/93/123 112/86/111 
f 113/86/112 112/86/111 124/93/123 
f 124/93/123 123/93/122 113/86/112 
f 121/94/120 125/94/124 126/95/125 
f 126/95/125 127/95/126 121/94/120 
f 128/89/127 119/89/118 122/92/121 
f 122/92/121 129/92/128 128/89/127 
f 120/90/119 130/90/129 125/91/124 
f 125/91/124 121/91/120 120/90/119 
f 130/90/129 128/89/127 129/92/128 
f 129/92/128 125/91/124 130/90/129 
f 126/95/125 131/96/130 132/97/131 
f 132/97/131 133/98/132 126/95/125 
f 125/94/124 129/99/128 131/96/130 
f 131/96/130 126/95/125 125/94/124 
f 122/99/121 121/94/120 127/95/126 
f 127/95/126 134/96/133 122/99/121 
f 122/100/121 135/101/134 136/102/135 
f 137/97/136 138/98/137 139/103/138 
f 139/103/138 140/104/139 137/97/136 
f 134/96/133 127/95/126 138/98/137 
f 138/98/137 137/97/136 134/96/133 
f 131/96/130 134/96/133 137/97/136 
f 137/97/136 132/97/131 131/96/130 
f 127/95/126 126/95/125 133/98/132 
f 133/98/132 138/98/137 127/95/126 
f 141/104/140 140/104/139 139/103/138 
f 139/103/138 142/103/141 141/104/140 
f 132/97/131 137/97/136 140/104/139 
f 140/104/139 141/104/140 132/97/131 
f 138/98/137 133/98/132 142/103/141 
f 142/103/141 139/103/138 138/98/137 
f 133/98/132 132/97/131 141/104/140 
f 141/104/140 142/103/141 133/98/132 
f 104/80/103 103/80/102 143/105/142 
f 143/105/142 144/105/143 104/80/103 
f 101/79/100 100/106/99 145/107/144 
f 145/107/144 103/80/102 101/79/100 
f 100/106/99 102/79/101 104/80/103 
f 104/80/103 145/107/144 100/106/99 
f 144/105/143 143/105/142 146/108/145 
f 146/108/145 147/108/146 144/105/143 
f 103/80/102 145/107/144 148/109/147 
f 148/109/147 143/105/142 103/80/102 
f 145/107/144 104/80/103 144/105/143 
f 144/105/143 148/109/147 145/107/144 
f 147/108/146 146/108/145 149/110/148 
f 149/110/148 150/110/149 147/108/146 
f 143/105/142 148/109/147 151/111/150 
f 151/111/150 146/108/145 143/105/142 
f 148/109/147 144/105/143 147/108/146 
f 147/108/146 151/111/150 148/109/147 
f 146/108/145 152/112/151 149/110/148 
f 147/108/146 152/112/151 151/111/150 
f 117/88/116 123/93/122 128/89/127 
f 128/89/127 130/90/129 117/88/116 
f 118/88/117 117/88/116 130/90/129 
f 130/90/129 120/90/119 118/88/117 
f 123/93/122 124/93/123 119/89/118 
f 119/89/118 128/89/127 123/93/122 
f 124/93/123 118/88/117 120/90/119 
f 120/90/119 119/89/118 124/93/123 
f 153/113/152 154/114/153 155/115/154 
f 155/115/154 156/116/155 153/113/152 
f 129/100/128 157/101/156 154/117/153 
f 131/118/130 153/119/152 158/120/157 
f 134/118/133 159/119/158 160/117/159 
f 157/101/156 129/100/128 136/102/135 
f 129/100/128 122/100/121 136/102/135 
f 153/119/152 131/118/130 154/117/153 
f 131/118/130 129/100/128 154/117/153 
f 159/119/158 134/118/133 158/120/157 
f 134/118/133 131/118/130 158/120/157 
f 135/101/134 122/100/121 160/117/159 
f 122/100/121 134/118/133 160/117/159 
f 161/121/160 162/122/161 163/123/162 
f 163/123/162 164/124/163 161/121/160 
f 159/113/158 158/125/157 165/126/164 
f 165/126/164 166/116/165 159/113/158 
f 157/127/156 136/128/135 161/121/160 
f 161/121/160 167/122/166 157/127/156 
f 154/114/153 157/127/156 167/122/166 
f 167/122/166 155/115/154 154/114/153 
f 135/127/134 160/114/159 168/115/167 
f 168/115/167 162/122/161 135/127/134 
f 158/125/157 153/113/152 156/116/155 
f 156/116/155 165/126/164 158/125/157 
f 160/114/159 159/113/158 166/116/165 
f 166/116/165 168/115/167 160/114/159 
f 136/128/135 135/127/134 162/122/161 
f 162/122/161 161/121/160 136/128/135 
f 169/129/168 170/130/169 171/131/170 
f 171/131/170 172/132/171 169/129/168 
f 156/116/155 155/115/154 173/133/172 
f 173/133/172 174/134/173 156/116/155 
f 167/122/166 161/121/160 164/124/163 
f 164/124/163 175/123/174 167/122/166 
f 166/116/165 165/126/164 176/135/175 
f 176/135/175 170/134/169 166/116/165 
f 155/115/154 167/122/166 175/123/174 
f 175/123/174 173/133/172 155/115/154 
f 162/122/161 168/115/167 169/133/168 
f 169/133/168 163/123/162 162/122/161 
f 165/126/164 156/116/155 174/134/173 
f 174/134/173 176/135/175 165/126/164 
f 168/115/167 166/116/165 170/134/169 
f 170/134/169 169/133/168 168/115/167 
f 177/132/176 178/136/177 179/137/178 
f 179/137/178 180/138/179 177/132/176 
f 164/139/163 163/140/162 181/136/180 
f 181/136/180 182/141/181 164/139/163 
f 174/130/173 173/129/172 177/132/176 
f 177/132/176 183/131/182 174/130/173 
f 175/140/174 164/139/163 182/141/181 
f 182/141/181 178/136/177 175/140/174 
f 170/130/169 176/142/175 184/143/183 
f 184/143/183 171/131/170 170/130/169 
f 173/129/172 175/140/174 178/136/177 
f 178/136/177 177/132/176 173/129/172 
f 163/140/162 169/129/168 172/132/171 
f 172/132/171 181/136/180 163/140/162 
f 176/142/175 174/130/173 183/131/182 
f 183/131/182 184/143/183 176/142/175 
f 179/137/178 185/144/184 186/145/185 
f 186/145/185 187/146/186 179/137/178 
f 181/136/180 172/132/171 188/138/187 
f 188/138/187 189/137/188 181/136/180 
f 184/143/183 183/131/182 190/147/189 
f 190/147/189 191/148/190 184/143/183 
f 172/132/171 171/131/170 192/147/191 
f 192/147/191 188/138/187 172/132/171 
f 182/141/181 181/136/180 189/137/188 
f 189/137/188 185/144/184 182/141/181 
f 183/131/182 177/132/176 180/138/179 
f 180/138/179 190/147/189 183/131/182 
f 178/136/177 182/141/181 185/144/184 
f 185/144/184 179/137/178 178/136/177 
f 171/131/170 184/143/183 191/148/190 
f 191/148/190 192/147/191 171/131/170 
f 193/149/192 194/150/193 195/151/194 
f 195/151/194 196/152/195 193/149/192 
f 192/147/191 191/148/190 197/153/196 
f 197/153/196 194/150/193 192/147/191 
f 180/138/179 179/137/178 187/146/186 
f 187/146/186 198/149/197 180/138/179 
f 189/137/188 188/138/187 193/149/192 
f 193/149/192 199/146/198 189/137/188 
f 191/148/190 190/147/189 200/150/199 
f 200/150/199 197/153/196 191/148/190 
f 188/138/187 192/147/191 194/150/193 
f 194/150/193 193/149/192 188/138/187 
f 185/144/184 189/137/188 199/146/198 
f 199/146/198 186/145/185 185/144/184 
f 190/147/189 180/138/179 198/149/197 
f 198/149/197 200/150/199 190/147/189 
f 201/154/200 202/151/201 203/155/202 
f 203/155/202 204/156/203 201/154/200 
f 186/145/185 199/146/198 205/157/204 
f 205/157/204 206/158/205 186/145/185 
f 200/150/199 198/149/197 207/152/206 
f 207/152/206 202/151/201 200/150/199 
f 187/146/186 186/145/185 206/158/205 
f 206/158/205 208/157/207 187/146/186 
f 194/150/193 197/153/196 201/154/200 
f 201/154/200 195/151/194 194/150/193 
f 198/149/197 187/146/186 208/157/207 
f 208/157/207 207/152/206 198/149/197 
f 199/146/198 193/149/192 196/152/195 
f 196/152/195 205/157/204 199/146/198 
f 197/153/196 200/150/199 202/151/201 
f 202/151/201 201/154/200 197/153/196 
f 209/155/208 204/156/203 210/159/209 
f 210/159/209 211/160/210 209/155/208 
f 196/152/195 195/151/194 209/155/208 
f 209/155/208 212/161/211 196/152/195 
f 206/158/205 205/157/204 213/162/212 
f 213/162/212 214/163/213 206/158/205 
f 202/151/201 207/152/206 215/161/214 
f 215/161/214 203/155/202 202/151/201 
f 208/157/207 206/158/205 214/163/213 
f 214/163/213 216/162/215 208/157/207 
f 195/151/194 201/154/200 204/156/203 
f 204/156/203 209/155/208 195/151/194 
f 207/152/206 208/157/207 216/162/215 
f 216/162/215 215/161/214 207/152/206 
f 205/157/204 196/152/195 212/161/211 
f 212/161/211 213/162/212 205/157/204 
f 215/161/214 216/162/215 217/164/216 
f 217/164/216 218/165/217 215/161/214 
f 213/162/212 212/161/211 219/165/218 
f 219/165/218 220/164/219 213/162/212 
f 204/156/203 203/155/202 221/160/220 
f 221/160/220 210/159/209 204/156/203 
f 212/161/211 209/155/208 211/160/210 
f 211/160/210 219/165/218 212/161/211 
f 214/163/213 213/162/212 220/164/219 
f 220/164/219 222/166/221 214/163/213 
f 203/155/202 215/161/214 218/165/217 
f 218/165/217 221/160/220 203/155/202 
f 216/162/215 214/163/213 222/166/221 
f 222/166/221 217/164/216 216/162/215 
f 223/167/222 224/167/223 225/167/224 
f 225/167/224 226/167/225 223/167/222 
f 217/164/216 222/166/221 220/164/219 
f 217/164/216 220/164/219 219/165/218 
f 217/164/216 219/165/218 211/160/210 
f 217/164/216 211/160/210 210/159/209 
f 217/164/216 210/159/209 221/160/220 
f 217/164/216 221/160/220 218/165/217 
f 227/167/226 228/167/227 229/167/228 
f 229/167/228 230/167/229 227/167/226 
f 231/167/230 232/167/231 233/167/232 
f 233/167/232 234/167/233 231/167/230 
f 235/167/234 236/167/235 227/167/226 
f 227/167/226 237/167/236 235/167/234 
f 238/167/237 231/167/230 234/167/233 
f 234/167/233 228/167/227 238/167/237 
f 224/167/223 239/167/238 240/167/239 
f 240/167/239 225/167/224 224/167/223 
f 236/167/235 238/167/237 228/167/227 
f 228/167/227 227/167/226 236/167/235 
f 232/167/231 223/167/222 226/167/225 
f 226/167/225 233/167/232 232/167/231 
f 239/167/238 235/167/234 237/167/236 
f 237/167/236 240/167/239 239/167/238 
f 229/167/228 241/167/240 242/167/241 
f 242/167/241 243/167/242 229/167/228 
f 233/167/232 226/167/225 244/167/243 
f 244/167/243 245/167/244 233/167/232 
f 240/167/239 237/167/236 246/167/245 
f 246/167/245 247/167/246 240/167/239 
f 226/167/225 225/167/224 248/167/247 
f 248/167/247 244/167/243 226/167/225 
f 234/167/233 233/167/232 245/167/244 
f 245/167/244 241/167/240 234/167/233 
f 237/167/236 227/167/226 230/167/229 
f 230/167/229 246/167/245 237/167/236 
f 228/167/227 234/167/233 241/167/240 
f 241/167/240 229/167/228 228/167/227 
f 225/167/224 240/167/239 247/167/246 
f 247/167/246 248/167/247 225/167/224 
f 249/167/248 250/167/249 251/167/250 
f 248/167/247 247/167/246 249/167/248 
f 249/167/248 252/167/251 248/167/247 
f 230/167/229 229/167/228 243/167/242 
f 243/167/242 253/167/252 230/167/229 
f 245/167/244 244/167/243 254/167/253 
f 254/167/253 255/167/254 245/167/244 
f 247/167/246 246/167/245 250/167/249 
f 250/167/249 249/167/248 247/167/246 
f 244/167/243 248/167/247 252/167/251 
f 252/167/251 254/167/253 244/167/243 
f 241/167/240 245/167/244 255/167/254 
f 255/167/254 242/167/241 241/167/240 
f 246/167/245 230/167/229 253/167/252 
f 253/167/252 250/167/249 246/167/245 
f 254/167/253 252/167/251 251/167/250 
f 242/167/241 255/167/254 251/167/250 
f 250/167/249 253/167/252 251/167/250 
f 243/167/242 242/167/241 251/167/250 
f 252/167/251 249/167/248 251/167/250 
f 253/167/252 243/167/242 251/167/250 
f 255/167/254 254/167/253 251/167/250 
f 147/108/146 150/110/149 152/112/151 
f 146/108/145 151/111/150 152/112/151 
f 256/168/255 257/169/256 258/169/257 
f 258/169/257 259/168/258 256/168/255 
f 260/170/259 261/170/260 262/171/261 
f 262/171/261 263/171/262 260/170/259 
f 257/169/256 256/168/255 260/170/259 
f 260/170/259 264/172/263 257/169/256 
f 256/168/255 259/168/258 261/170/260 
f 261/170/260 260/170/259 256/168/255 
f 259/168/258 258/169/257 265/172/264 
f 265/172/264 261/170/260 259/168/258 
f 258/169/257 257/169/256 264/172/263 
f 264/172/263 265/172/264 258/169/257 
f 262/171/261 266/173/265 267/174/266 
f 267/174/266 268/175/267 262/171/261 
f 261/170/260 265/172/264 266/173/265 
f 266/173/265 262/171/261 261/170/260 
f 265/172/264 264/172/263 269/173/268 
f 269/173/268 266/173/265 265/172/264 
f 264/172/263 260/170/259 263/171/262 
f 263/171/262 269/173/268 264/172/263 
f 270/175/269 268/175/267 267/174/266 
f 267/174/266 271/174/270 270/175/269 
f 266/173/265 269/173/268 271/174/270 
f 271/174/270 267/174/266 266/173/265 
f 269/173/268 263/171/262 270/175/269 
f 270/175/269 271/174/270 269/173/268 
f 263/171/262 262/171/261 268/175/267 
f 268/175/267 270/175/269 263/171/262 
f 272/176/271 273/177/272 274/178/273 
f 274/178/273 275/179/274 272/176/271 
f 273/177/272 276/176/275 277/179/276 
f 277/179/276 274/178/273 273/177/272 
f 276/176/275 278/180/277 279/181/278 
f 279/181/278 277/179/276 276/176/275 
f 280/180/279 272/176/271 275/179/274 
f 275/179/274 281/181/280 280/180/279 
f 277/179/276 279/181/278 282/182/281 
f 282/182/281 283/183/282 277/179/276 
f 281/181/280 275/179/274 284/183/283 
f 284/183/283 285/182/284 281/181/280 
f 275/179/274 274/178/273 286/184/285 
f 286/184/285 284/183/283 275/179/274 
f 274/178/273 277/179/276 283/183/282 
f 283/183/282 286/184/285 274/178/273 
f 283/183/282 282/182/281 287/185/286 
f 285/182/284 284/183/283 287/185/286 
f 284/183/283 286/184/285 287/185/286 
f 286/184/285 283/183/282 287/185/286 
f 278/180/277 276/176/275 288/186/287 
f 288/186/287 289/187/288 278/180/277 
f 290/186/289 288/186/287 291/188/290 
f 272/176/271 280/180/279 292/187/291 
f 292/187/291 290/186/289 272/176/271 
f 273/177/272 272/176/271 290/186/289 
f 290/186/289 291/188/290 273/177/272 
f 276/176/275 273/177/272 291/188/290 
f 291/188/290 288/186/287 276/176/275 
f 289/187/288 288/186/287 290/186/289 
f 290/186/289 292/187/291 289/187/288 
f 1/1/1 293/4/292 294/3/293 
f 294/3/293 2/2/2 1/1/1 
f 293/4/292 295/6/294 296/5/295 
f 296/5/295 294/3/293 293/4/292 
f 295/6/294 297/4/296 298/3/297 
f 298/3/297 296/5/295 295/6/294 
f 297/4/296 10/1/10 9/2/9 
f 9/2/9 298/3/297 297/4/296 
f 11/7/11 14/10/14 299/9/298 
f 299/9/298 300/8/299 11/7/11 
f 298/3/297 300/8/299 301/11/300 
f 301/11/300 296/5/295 298/3/297 
f 294/3/293 302/8/301 16/7/16 
f 16/7/16 2/2/2 294/3/293 
f 9/2/9 11/7/11 300/8/299 
f 300/8/299 298/3/297 9/2/9 
f 296/5/295 301/11/300 302/8/301 
f 302/8/301 294/3/293 296/5/295 
f 303/12/302 304/15/303 305/14/304 
f 305/14/304 306/13/305 303/12/302 
f 301/11/300 307/16/306 308/9/307 
f 308/9/307 302/8/301 301/11/300 
f 300/8/299 299/9/298 307/16/306 
f 307/16/306 301/11/300 300/8/299 
f 302/8/301 308/9/307 24/10/24 
f 24/10/24 16/7/16 302/8/301 
f 299/17/298 309/13/308 303/12/302 
f 303/12/302 307/18/306 299/17/298 
f 308/17/307 306/13/305 26/20/26 
f 26/20/26 24/19/24 308/17/307 
f 306/13/305 305/14/304 27/21/27 
f 27/21/27 26/20/26 306/13/305 
f 14/19/14 28/20/28 309/13/308 
f 309/13/308 299/17/298 14/19/14 
f 309/13/308 310/14/309 304/15/303 
f 304/15/303 303/12/302 309/13/308 
f 28/20/28 30/21/30 310/14/309 
f 310/14/309 309/13/308 28/20/28 
f 307/18/306 303/12/302 306/13/305 
f 306/13/305 308/17/307 307/18/306 
f 304/22/303 311/25/310 312/24/311 
f 312/24/311 305/23/304 304/22/303 
f 305/23/304 312/24/311 33/27/33 
f 33/27/33 27/26/27 305/23/304 
f 30/26/30 35/27/35 313/24/312 
f 313/24/312 310/23/309 30/26/30 
f 310/23/309 313/24/312 311/25/310 
f 311/25/310 304/22/303 310/23/309 
f 35/27/35 37/29/37 314/28/313 
f 314/28/313 313/24/312 35/27/35 
f 313/24/312 314/28/313 315/30/314 
f 315/30/314 311/25/310 313/24/312 
f 311/25/310 315/30/314 316/28/315 
f 316/28/315 312/24/311 311/25/310 
f 312/24/311 316/28/315 40/29/40 
f 40/29/40 33/27/33 312/24/311 
f 316/31/315 317/32/316 41/32/41 
f 41/32/41 40/31/40 316/31/315 
f 37/31/37 44/32/44 318/32/317 
f 318/32/317 314/31/313 37/31/37 
f 314/31/313 318/32/317 319/32/318 
f 319/32/318 315/31/314 314/31/313 
f 315/31/314 319/32/318 317/32/316 
f 317/32/316 316/31/315 315/31/314 
f 319/32/318 320/33/319 321/33/320 
f 321/33/320 317/32/316 319/32/318 
f 317/32/316 321/33/320 48/33/48 
f 48/33/48 41/32/41 317/32/316 
f 44/32/44 50/33/50 322/33/321 
f 322/33/321 318/32/317 44/32/44 
f 318/32/317 322/33/321 320/33/319 
f 320/33/319 319/32/318 318/32/317 
f 322/34/321 323/37/322 324/36/323 
f 324/36/323 320/35/319 322/34/321 
f 320/35/319 324/36/323 325/37/324 
f 325/37/324 321/34/320 320/35/319 
f 321/34/320 325/37/324 54/39/54 
f 54/39/54 48/38/48 321/34/320 
f 50/38/50 55/39/55 323/37/322 
f 323/37/322 322/34/321 50/38/50 
f 325/40/324 326/43/325 56/42/56 
f 56/42/56 54/41/54 325/40/324 
f 55/41/55 59/42/59 327/43/326 
f 327/43/326 323/40/322 55/41/55 
f 323/40/322 327/43/326 328/45/327 
f 328/45/327 324/44/323 323/40/322 
f 324/44/323 328/45/327 326/43/325 
f 326/43/325 325/40/324 324/44/323 
f 326/46/325 329/49/328 61/48/61 
f 61/48/61 56/47/56 326/46/325 
f 59/47/59 64/48/64 330/49/329 
f 330/49/329 327/46/326 59/47/59 
f 327/46/326 330/49/329 331/51/330 
f 331/51/330 328/50/327 327/46/326 
f 328/50/327 331/51/330 329/49/328 
f 329/49/328 326/46/325 328/50/327 
f 329/52/328 332/55/331 333/54/332 
f 333/54/332 334/53/333 329/52/328 
f 329/56/328 334/59/333 69/58/69 
f 69/58/69 61/57/61 329/56/328 
f 64/57/64 71/58/71 335/59/334 
f 335/59/334 330/56/329 64/57/64 
f 335/59/334 336/62/335 337/61/336 
f 337/61/336 338/60/294 335/59/334 
f 338/60/294 337/61/336 339/62/337 
f 339/62/337 334/59/333 338/60/294 
f 334/59/333 339/62/337 76/63/75 
f 76/63/75 69/58/69 334/59/333 
f 71/58/71 77/63/76 336/62/335 
f 336/62/335 335/59/334 71/58/71 
f 339/62/337 340/65/338 78/64/77 
f 78/64/77 76/63/75 339/62/337 
f 77/63/76 81/64/80 341/65/339 
f 341/65/339 336/62/335 77/63/76 
f 336/62/335 341/65/339 342/66/340 
f 342/66/340 337/61/336 336/62/335 
f 337/61/336 342/66/340 340/65/338 
f 340/65/338 339/62/337 337/61/336 
f 343/67/341 344/70/342 345/69/343 
f 345/69/343 346/68/344 343/67/341 
f 335/53/334 347/54/345 348/55/346 
f 348/55/346 330/52/329 335/53/334 
f 330/52/329 348/55/346 349/72/347 
f 349/72/347 331/71/330 330/52/329 
f 331/71/330 349/72/347 332/55/331 
f 332/55/331 329/52/328 331/71/330 
f 334/53/333 333/54/332 347/54/345 
f 347/54/345 335/53/334 334/53/333 
f 350/73/348 347/54/345 333/54/332 
f 333/54/332 351/73/349 350/73/348 
f 350/73/348 352/74/350 344/70/342 
f 344/70/342 343/67/341 350/73/348 
f 353/67/351 354/70/352 355/74/353 
f 355/74/353 351/73/349 353/67/351 
f 346/68/344 345/69/343 354/70/352 
f 354/70/352 353/67/351 346/68/344 
f 352/74/350 356/76/354 357/75/355 
f 357/75/355 344/70/342 352/74/350 
f 354/70/352 358/75/356 359/76/357 
f 359/76/357 355/74/353 354/70/352 
f 355/74/353 359/76/357 356/76/354 
f 356/76/354 352/74/350 355/74/353 
f 344/70/342 360/78/358 361/77/359 
f 361/77/359 345/69/343 344/70/342 
f 345/69/343 361/77/359 362/78/360 
f 362/78/360 354/70/352 345/69/343 
f 349/72/347 346/68/344 353/67/351 
f 353/67/351 332/55/331 349/72/347 
f 332/55/331 353/67/351 351/73/349 
f 351/73/349 333/54/332 332/55/331 
f 347/54/345 350/73/348 343/67/341 
f 343/67/341 348/55/346 347/54/345 
f 352/74/350 350/73/348 351/73/349 
f 351/73/349 355/74/353 352/74/350 
f 348/55/346 343/67/341 346/68/344 
f 346/68/344 349/72/347 348/55/346 
f 344/70/342 357/75/355 358/75/356 
f 358/75/356 354/70/352 344/70/342 
f 360/78/358 344/70/342 354/70/352 
f 354/70/352 362/78/360 360/78/358 
f 362/79/360 363/80/361 364/80/362 
f 364/80/362 360/79/358 362/79/360 
f 359/81/357 365/82/363 366/82/364 
f 366/82/364 356/81/354 359/81/357 
f 366/82/364 367/84/365 368/84/366 
f 368/84/366 369/83/367 366/82/364 
f 358/85/356 370/83/368 365/82/363 
f 365/82/363 359/81/357 358/85/356 
f 357/85/355 369/83/367 370/83/368 
f 370/83/368 358/85/356 357/85/355 
f 356/81/354 366/82/364 369/83/367 
f 369/83/367 357/85/355 356/81/354 
f 371/84/369 372/86/370 373/86/371 
f 373/86/371 367/84/365 371/84/369 
f 365/82/363 371/84/369 367/84/365 
f 367/84/365 366/82/364 365/82/363 
f 369/83/367 368/84/366 374/84/372 
f 374/84/372 370/83/368 369/83/367 
f 370/83/368 374/84/372 371/84/369 
f 371/84/369 365/82/363 370/83/368 
f 375/87/373 376/88/374 377/88/375 
f 377/88/375 378/87/376 375/87/373 
f 368/84/366 375/87/373 378/87/376 
f 378/87/376 374/84/372 368/84/366 
f 374/84/372 378/87/376 372/86/370 
f 372/86/370 371/84/369 374/84/372 
f 367/84/365 373/86/371 375/87/373 
f 375/87/373 368/84/366 367/84/365 
f 379/89/377 380/92/378 381/91/379 
f 381/91/379 382/90/380 379/89/377 
f 378/87/376 377/88/375 383/93/381 
f 383/93/381 372/86/370 378/87/376 
f 373/86/371 384/93/382 376/88/374 
f 376/88/374 375/87/373 373/86/371 
f 372/86/370 383/93/381 384/93/382 
f 384/93/382 373/86/371 372/86/370 
f 381/94/379 385/95/383 386/95/384 
f 386/95/384 387/94/385 381/94/379 
f 388/89/386 389/92/387 380/92/378 
f 380/92/378 379/89/377 388/89/386 
f 382/90/380 381/91/379 387/91/385 
f 387/91/385 390/90/388 382/90/380 
f 390/90/388 387/91/385 389/92/387 
f 389/92/387 388/89/386 390/90/388 
f 386/95/384 391/98/389 392/97/390 
f 392/97/390 393/96/391 386/95/384 
f 387/94/385 386/95/384 393/96/391 
f 393/96/391 389/99/387 387/94/385 
f 380/99/378 394/96/392 385/95/383 
f 385/95/383 381/94/379 380/99/378 
f 380/100/378 395/102/157 396/101/158 
f 397/97/393 398/104/394 399/103/395 
f 399/103/395 400/98/396 397/97/393 
f 394/96/392 397/97/393 400/98/396 
f 400/98/396 385/95/383 394/96/392 
f 393/96/391 392/97/390 397/97/393 
f 397/97/393 394/96/392 393/96/391 
f 385/95/383 400/98/396 391/98/389 
f 391/98/389 386/95/384 385/95/383 
f 401/104/397 402/103/398 399/103/395 
f 399/103/395 398/104/394 401/104/397 
f 392/97/390 401/104/397 398/104/394 
f 398/104/394 397/97/393 392/97/390 
f 400/98/396 399/103/395 402/103/398 
f 402/103/398 391/98/389 400/98/396 
f 391/98/389 402/103/398 401/104/397 
f 401/104/397 392/97/390 391/98/389 
f 363/80/361 403/105/399 404/105/400 
f 404/105/400 364/80/362 363/80/361 
f 360/79/358 364/80/362 405/107/401 
f 405/107/401 361/106/359 360/79/358 
f 361/106/359 405/107/401 363/80/361 
f 363/80/361 362/79/360 361/106/359 
f 403/105/399 406/108/402 407/108/403 
f 407/108/403 404/105/400 403/105/399 
f 364/80/362 404/105/400 408/109/404 
f 408/109/404 405/107/401 364/80/362 
f 405/107/401 408/109/404 403/105/399 
f 403/105/399 363/80/361 405/107/401 
f 406/108/402 409/110/405 410/110/406 
f 410/110/406 407/108/403 406/108/402 
f 404/105/400 407/108/403 411/111/407 
f 411/111/407 408/109/404 404/105/400 
f 408/109/404 411/111/407 406/108/402 
f 406/108/402 403/105/399 408/109/404 
f 407/108/403 410/110/406 412/112/408 
f 406/108/402 411/111/407 412/112/408 
f 377/88/375 390/90/388 388/89/386 
f 388/89/386 383/93/381 377/88/375 
f 376/88/374 382/90/380 390/90/388 
f 390/90/388 377/88/375 376/88/374 
f 383/93/381 388/89/386 379/89/377 
f 379/89/377 384/93/382 383/93/381 
f 384/93/382 379/89/377 382/90/380 
f 382/90/380 376/88/374 384/93/382 
f 413/113/409 414/116/166 415/115/410 
f 415/115/410 416/114/411 413/113/409 
f 389/100/387 416/117/411 417/101/412 
f 393/118/391 418/120/135 413/119/409 
f 394/118/392 419/117/413 420/119/134 
f 417/101/412 395/102/157 389/100/387 
f 389/100/387 395/102/157 380/100/378 
f 413/119/409 416/117/411 393/118/391 
f 393/118/391 416/117/411 389/100/387 
f 420/119/134 418/120/135 394/118/392 
f 394/118/392 418/120/135 393/118/391 
f 396/101/158 419/117/413 380/100/378 
f 380/100/378 419/117/413 394/118/392 
f 421/121/164 422/124/175 423/123/169 
f 423/123/169 424/122/165 421/121/164 
f 420/113/134 425/116/161 426/126/160 
f 426/126/160 418/125/135 420/113/134 
f 417/127/412 427/122/155 421/121/164 
f 421/121/164 395/128/157 417/127/412 
f 416/114/411 415/115/410 427/122/155 
f 427/122/155 417/127/412 416/114/411 
f 396/127/158 424/122/165 428/115/414 
f 428/115/414 419/114/413 396/127/158 
f 418/125/135 426/126/160 414/116/166 
f 414/116/166 413/113/409 418/125/135 
f 419/114/413 428/115/414 425/116/161 
f 425/116/161 420/113/134 419/114/413 
f 395/128/157 421/121/164 424/122/165 
f 424/122/165 396/127/158 395/128/157 
f 429/129/415 430/132/416 431/131/180 
f 431/131/180 432/130/162 429/129/415 
f 414/116/166 433/134/174 434/133/417 
f 434/133/417 415/115/410 414/116/166 
f 427/122/155 435/123/173 422/124/175 
f 422/124/175 421/121/164 427/122/155 
f 425/116/161 432/134/162 436/135/163 
f 436/135/163 426/126/160 425/116/161 
f 415/115/410 434/133/417 435/123/173 
f 435/123/173 427/122/155 415/115/410 
f 424/122/165 423/123/169 429/133/415 
f 429/133/415 428/115/414 424/122/165 
f 426/126/160 436/135/163 433/134/174 
f 433/134/174 414/116/166 426/126/160 
f 428/115/414 429/133/415 432/134/162 
f 432/134/162 425/116/161 428/115/414 
f 437/132/418 438/138/419 439/137/189 
f 439/137/189 440/136/182 437/132/418 
f 422/139/175 441/141/420 442/136/170 
f 442/136/170 423/140/169 422/139/175 
f 433/130/174 443/131/177 437/132/418 
f 437/132/418 434/129/417 433/130/174 
f 435/140/173 440/136/182 441/141/420 
f 441/141/420 422/139/175 435/140/173 
f 432/130/162 431/131/180 444/143/421 
f 444/143/421 436/142/163 432/130/162 
f 434/129/417 437/132/418 440/136/182 
f 440/136/182 435/140/173 434/129/417 
f 423/140/169 442/136/170 430/132/416 
f 430/132/416 429/129/415 423/140/169 
f 436/142/163 444/143/421 443/131/177 
f 443/131/177 433/130/174 436/142/163 
f 439/137/189 445/146/199 446/145/422 
f 446/145/422 447/144/423 439/137/189 
f 442/136/170 448/137/424 449/138/425 
f 449/138/425 430/132/416 442/136/170 
f 444/143/421 450/148/426 451/147/178 
f 451/147/178 443/131/177 444/143/421 
f 430/132/416 449/138/425 452/147/427 
f 452/147/427 431/131/180 430/132/416 
f 441/141/420 447/144/423 448/137/424 
f 448/137/424 442/136/170 441/141/420 
f 443/131/177 451/147/178 438/138/419 
f 438/138/419 437/132/418 443/131/177 
f 440/136/182 439/137/189 447/144/423 
f 447/144/423 441/141/420 440/136/182 
f 431/131/180 452/147/427 450/148/426 
f 450/148/426 444/143/421 431/131/180 
f 453/149/428 454/152/429 455/151/204 
f 455/151/204 456/150/198 453/149/428 
f 452/147/427 456/150/198 457/153/185 
f 457/153/185 450/148/426 452/147/427 
f 438/138/419 458/149/430 445/146/199 
f 445/146/199 439/137/189 438/138/419 
f 448/137/424 459/146/193 453/149/428 
f 453/149/428 449/138/425 448/137/424 
f 450/148/426 457/153/185 460/150/186 
f 460/150/186 451/147/178 450/148/426 
f 449/138/425 453/149/428 456/150/198 
f 456/150/198 452/147/427 449/138/425 
f 447/144/423 446/145/422 459/146/193 
f 459/146/193 448/137/424 447/144/423 
f 451/147/178 460/150/186 458/149/430 
f 458/149/430 438/138/419 451/147/178 
f 461/154/431 462/156/432 463/155/215 
f 463/155/215 464/151/207 461/154/431 
f 446/145/422 465/158/433 466/157/194 
f 466/157/194 459/146/193 446/145/422 
f 460/150/186 464/151/207 467/152/434 
f 467/152/434 458/149/430 460/150/186 
f 445/146/199 468/157/201 465/158/433 
f 465/158/433 446/145/422 445/146/199 
f 456/150/198 455/151/204 461/154/431 
f 461/154/431 457/153/185 456/150/198 
f 458/149/430 467/152/434 468/157/201 
f 468/157/201 445/146/199 458/149/430 
f 459/146/193 466/157/194 454/152/429 
f 454/152/429 453/149/428 459/146/193 
f 457/153/185 461/154/431 464/151/207 
f 464/151/207 460/150/186 457/153/185 
f 469/155/212 470/160/219 471/159/221 
f 471/159/221 462/156/432 469/155/212 
f 454/152/429 472/161/435 469/155/212 
f 469/155/212 455/151/204 454/152/429 
f 465/158/433 473/163/436 474/162/208 
f 474/162/208 466/157/194 465/158/433 
f 464/151/207 463/155/215 475/161/437 
f 475/161/437 467/152/434 464/151/207 
f 468/157/201 476/162/202 473/163/436 
f 473/163/436 465/158/433 468/157/201 
f 455/151/204 469/155/212 462/156/432 
f 462/156/432 461/154/431 455/151/204 
f 467/152/434 475/161/437 476/162/202 
f 476/162/202 468/157/201 467/152/434 
f 466/157/194 474/162/208 472/161/435 
f 472/161/435 454/152/429 466/157/194 
f 475/161/437 477/165/438 478/164/220 
f 478/164/220 476/162/202 475/161/437 
f 474/162/208 479/164/210 480/165/439 
f 480/165/439 472/161/435 474/162/208 
f 462/156/432 471/159/221 481/160/216 
f 481/160/216 463/155/215 462/156/432 
f 472/161/435 480/165/439 470/160/219 
f 470/160/219 469/155/212 472/161/435 
f 473/163/436 482/166/209 479/164/210 
f 479/164/210 474/162/208 473/163/436 
f 463/155/215 481/160/216 477/165/438 
f 477/165/438 475/161/437 463/155/215 
f 476/162/202 478/164/220 482/166/209 
f 482/166/209 473/163/436 476/162/202 
f 483/167/440 484/167/225 485/167/232 
f 485/167/232 486/167/231 483/167/440 
f 478/164/220 477/165/438 481/160/216 
f 478/164/220 481/160/216 471/159/221 
f 478/164/220 471/159/221 470/160/219 
f 478/164/220 470/160/219 480/165/439 
f 478/164/220 480/165/439 479/164/210 
f 478/164/220 479/164/210 482/166/209 
f 487/167/441 488/167/442 489/167/245 
f 489/167/245 490/167/236 487/167/441 
f 491/167/443 492/167/444 493/167/224 
f 493/167/224 494/167/223 491/167/443 
f 495/167/237 496/167/227 487/167/441 
f 487/167/441 497/167/445 495/167/237 
f 498/167/234 490/167/236 492/167/444 
f 492/167/444 491/167/443 498/167/234 
f 486/167/231 485/167/232 499/167/446 
f 499/167/446 500/167/447 486/167/231 
f 497/167/445 487/167/441 490/167/236 
f 490/167/236 498/167/234 497/167/445 
f 494/167/223 493/167/224 484/167/225 
f 484/167/225 483/167/440 494/167/223 
f 500/167/447 499/167/446 496/167/227 
f 496/167/227 495/167/237 500/167/447 
f 489/167/245 501/167/249 502/167/248 
f 502/167/248 503/167/246 489/167/245 
f 493/167/224 504/167/247 505/167/448 
f 505/167/448 484/167/225 493/167/224 
f 499/167/446 506/167/240 507/167/228 
f 507/167/228 496/167/227 499/167/446 
f 484/167/225 505/167/448 508/167/244 
f 508/167/244 485/167/232 484/167/225 
f 492/167/444 503/167/246 504/167/247 
f 504/167/247 493/167/224 492/167/444 
f 496/167/227 507/167/228 488/167/442 
f 488/167/442 487/167/441 496/167/227 
f 490/167/236 489/167/245 503/167/246 
f 503/167/246 492/167/444 490/167/236 
f 485/167/232 508/167/244 506/167/240 
f 506/167/240 499/167/446 485/167/232 
f 509/167/241 510/167/449 511/167/242 
f 508/167/244 512/167/254 509/167/241 
f 509/167/241 506/167/240 508/167/244 
f 488/167/442 513/167/450 501/167/249 
f 501/167/249 489/167/245 488/167/442 
f 504/167/247 514/167/251 515/167/451 
f 515/167/451 505/167/448 504/167/247 
f 506/167/240 509/167/241 511/167/242 
f 511/167/242 507/167/228 506/167/240 
f 505/167/448 515/167/451 512/167/254 
f 512/167/254 508/167/244 505/167/448 
f 503/167/246 502/167/248 514/167/251 
f 514/167/251 504/167/247 503/167/246 
f 507/167/228 511/167/242 513/167/450 
f 513/167/450 488/167/442 507/167/228 
f 515/167/451 510/167/449 512/167/254 
f 502/167/248 510/167/449 514/167/251 
f 511/167/242 510/167/449 513/167/450 
f 501/167/249 510/167/449 502/167/248 
f 512/167/254 510/167/449 509/167/241 
f 513/167/450 510/167/449 501/167/249 
f 514/167/251 510/167/449 515/167/451 
f 406/108/402 412/112/408 409/110/405 
f 407/108/403 412/112/408 411/111/407 
f 516/168/452 517/168/453 518/169/454 
f 518/169/454 519/169/455 516/168/452 
f 520/170/456 521/171/457 522/171/458 
f 522/171/458 523/170/459 520/170/456 
f 519/169/455 524/172/460 520/170/456 
f 520/170/456 516/168/452 519/169/455 
f 516/168/452 520/170/456 523/170/459 
f 523/170/459 517/168/453 516/168/452 
f 517/168/453 523/170/459 525/172/461 
f 525/172/461 518/169/454 517/168/453 
f 518/169/454 525/172/461 524/172/460 
f 524/172/460 519/169/455 518/169/454 
f 522/171/458 526/175/462 527/174/463 
f 527/174/463 528/173/464 522/171/458 
f 523/170/459 522/171/458 528/173/464 
f 528/173/464 525/172/461 523/170/459 
f 525/172/461 528/173/464 529/173/465 
f 529/173/465 524/172/460 525/172/461 
f 524/172/460 529/173/465 521/171/457 
f 521/171/457 520/170/456 524/172/460 
f 530/175/466 531/174/467 527/174/463 
f 527/174/463 526/175/462 530/175/466 
f 528/173/464 527/174/463 531/174/467 
f 531/174/467 529/173/465 528/173/464 
f 529/173/465 531/174/467 530/175/466 
f 530/175/466 521/171/457 529/173/465 
f 521/171/457 530/175/466 526/175/462 
f 526/175/462 522/171/458 521/171/457 
f 532/176/468 533/179/469 534/178/470 
f 534/178/470 535/177/471 532/176/468 
f 535/177/471 534/178/470 536/179/472 
f 536/179/472 537/176/473 535/177/471 
f 537/176/473 536/179/472 279/181/278 
f 279/181/278 278/180/277 537/176/473 
f 280/180/279 281/181/280 533/179/469 
f 533/179/469 532/176/468 280/180/279 
f 536/179/472 538/183/474 282/182/281 
f 282/182/281 279/181/278 536/179/472 
f 281/181/280 285/182/284 539/183/475 
f 539/183/475 533/179/469 281/181/280 
f 533/179/469 539/183/475 540/184/476 
f 540/184/476 534/178/470 533/179/469 
f 534/178/470 540/184/476 538/183/474 
f 538/183/474 536/179/472 534/178/470 
f 538/183/474 287/185/286 282/182/281 
f 285/182/284 287/185/286 539/183/475 
f 539/183/475 287/185/286 540/184/476 
f 540/184/476 287/185/286 538/183/474 
f 278/180/277 289/187/288 541/186/477 
f 541/186/477 537/176/473 278/180/277 
f 542/186/478 543/188/479 541/186/477 
f 532/176/468 542/186/478 292/187/291 
f 292/187/291 280/180/279 532/176/468 
f 535/177/471 543/188/479 542/186/478 
f 542/186/478 532/176/468 535/177/471 
f 537/176/473 541/186/477 543/188/479 
f 543/188/479 535/177/471 537/176/473 
f 289/187/288 292/187/291 542/186/478 
f 542/186/478 541/186/477 289/187/288 
f 80/65/79 82/66/81 79/65/78 
f 80/65/79 79/65/78 78/64/77 
f 80/65/79 78/64/77 340/65/338 
f 80/65/79 340/65/338 342/66/340 
f 80/65/79 342/66/340 341/65/339 
f 80/65/79 341/65/339 81/64/80 
# 1040 faces

